<svg width="54" height="70" viewBox="0 0 54 70" fill="none" xmlns="http://www.w3.org/2000/svg">
<path d="M28.9045 20.6177C27.9356 20.6177 27.6735 21.4843 27.4821 22.118C26.9458 23.89 25.3152 29.2817 17.7379 38.5039C11.5431 46.0432 9.51022 54.566 12.4303 60.7462C14.981 66.1427 20.8263 69.1176 28.8909 69.1254H28.9178C36.9823 69.118 42.8271 66.143 45.3784 60.7462C48.2986 54.5659 46.2655 46.0432 40.0708 38.5039C32.4937 29.283 30.8629 23.8899 30.3266 22.118C30.1352 21.4843 29.8721 20.6177 28.9042 20.6177H28.9045ZM43.1739 59.7041C41.0472 64.2039 35.9797 66.6838 28.9051 66.6877C21.8305 66.6842 16.7631 64.204 14.6363 59.7041C12.1221 54.3856 14.033 46.8549 19.6223 40.0507C25.2249 33.2329 27.7232 28.3605 28.9056 25.4329C30.0878 28.3604 32.5875 33.2316 38.1889 40.0507C43.7776 46.8549 45.6886 54.3858 43.1743 59.7041H43.1739Z" fill="white"/>
<path d="M10.7578 13.5086C10.6712 13.2235 10.4079 12.3521 9.47325 12.3521C8.53965 12.3521 8.27634 13.2222 8.19002 13.5086C7.95363 14.2899 7.23458 16.6664 3.84646 20.7905C0.798284 24.5004 -0.143697 28.5736 1.32719 31.6852C2.61172 34.4017 5.50142 35.8995 9.46714 35.9034C9.47069 35.9034 9.4745 35.9021 9.47933 35.9034C13.4451 35.9008 16.3349 34.403 17.6193 31.6852C19.0904 28.5738 18.1494 24.4994 15.1 20.7905C11.7134 16.6664 10.9943 14.2899 10.7577 13.5086H10.7578ZM15.4172 30.6439C14.558 32.4624 12.4471 33.4641 9.47455 33.4653C6.5021 33.464 4.39109 32.4623 3.53186 30.6439C2.48984 28.4392 3.33204 25.257 5.73042 22.3382C7.63524 20.02 8.77729 18.1726 9.47455 16.8025C10.1718 18.1723 11.3148 20.0187 13.2197 22.3382C15.6157 25.2559 16.4593 28.4393 15.4172 30.6439Z" fill="white"/>
<path d="M44.5194 24.4272H44.5316C48.4974 24.4247 51.3872 22.9269 52.6716 20.209C54.1427 17.0964 53.2017 13.0233 50.1523 9.31374C46.7642 5.18955 46.0451 2.81309 45.8087 2.03179C45.7234 1.74539 45.4604 0.875244 44.5267 0.875244C43.5931 0.875244 43.3298 1.7454 43.2422 2.03179C43.0058 2.81309 42.2868 5.18832 38.8986 9.31374C35.8505 13.0236 34.9085 17.0968 36.3794 20.209C37.6639 22.9256 40.5548 24.4236 44.5193 24.4272H44.5194ZM40.7814 10.8598C42.6862 8.5416 43.8283 6.69417 44.5265 5.3241C45.2238 6.69391 46.3656 8.5416 48.2706 10.8598C50.668 13.7787 51.5112 16.9622 50.4692 19.1655C49.6087 20.9849 47.499 21.9869 44.5265 21.9882C41.5541 21.9869 39.4443 20.9852 38.5838 19.1655C37.5408 16.9621 38.3842 13.7786 40.7814 10.8598Z" fill="white"/>
</svg>
