<svg width="80" height="59" viewBox="0 0 80 59" fill="none" xmlns="http://www.w3.org/2000/svg">
<path d="M78.5 24C76.25 15.25 67.75 7.49997 59 13C55.25 6.74997 49.5 1.49997 41.75 0.999969C30.75 -3.12328e-05 25 5.49997 20.75 14.75C14.25 14.25 7.99999 16.5 4.24999 23C-0.75001 31.5 -0.75001 48.25 5.99999 56C6.24999 56.25 6.74999 56.5 6.99999 56.5C29 58.5 51 59 73.25 57.5C73.5 57.5 74 57.25 74.25 57C79.5 47.5 81.25 34.25 78.5 24ZM72.5 54.75C50.75 56 29.25 55.75 7.74999 53.75C1.99999 47 2.24999 32.5 5.74999 25.25C10.75 15.25 22.5 15.5 31.25 20.5C32.75 21.25 34 19.25 32.5 18.25C29.75 16.5 26.5 15.5 23.25 14.75C24.25 12.25 25.25 9.74997 27.25 7.74997C30.75 3.74997 36.75 2.74997 41.75 3.24997C50.5 3.99997 56.25 11.5 59.5 19C60.25 20.5 62.25 19.25 61.75 17.75C61.25 16.75 60.75 15.75 60.25 15C70.75 7.99997 76.75 23.75 77 32C77.25 39.5 76 48 72.5 54.75Z" fill="white"/>
<path d="M32.0001 44.7498C25.7501 45.4998 18.0001 44.4998 18.5001 36.7498C18.7501 29.2498 24.7501 26.2498 31.5001 28.9998C33.0001 29.4998 33.7501 27.2498 32.2501 26.4998C24.5001 23.4998 17.2501 26.9998 16.2501 35.4998C15.2501 45.2498 23.7501 48.2498 32.2501 47.2498C33.7501 46.9998 33.7501 44.4998 32.0001 44.7498Z" fill="white"/>
<path d="M43.5 25C42.75 25 42.5 25.75 42.75 26.5C38.25 28.75 35.5 33.5 36.75 38.75C38 45 44 47.5 50 46.75C56 46 58.25 40 57 34.75C55 27.5 50.75 24 43.5 25ZM48 44.25C43.75 44.25 40 42.75 39 38C38 33.5 40.75 29.5 45 28C45.5 27.75 45.75 27.5 45.75 27.25C50.25 27.25 53 30 54.25 34.75C55.5 39.75 53.75 44.25 48 44.25Z" fill="white"/>
<path d="M66.7467 49.4997C64.7467 49.2497 62.7467 48.4997 60.9967 47.7497C62.2467 46.9997 63.9967 46.7497 65.2467 45.4997C66.4967 44.2497 66.9967 42.2497 66.4967 40.2497C65.4967 36.9997 61.2467 36.2497 59.2467 38.9997C58.2467 40.2497 60.4967 41.4997 61.4967 40.2497C62.7467 38.4997 64.4967 40.7497 64.2467 42.2497C63.9967 43.7497 62.7467 44.2497 61.4967 44.7497C60.2467 45.2497 58.9967 45.7497 57.9967 46.7497C57.4967 47.2497 57.4967 48.2497 58.2467 48.7497C60.7467 50.2497 63.4967 51.2497 66.2467 51.7497C67.7467 52.2497 68.4967 49.9997 66.7467 49.4997Z" fill="white"/>
</svg>
