<svg width="82" height="104" viewBox="0 0 82 104" fill="none" xmlns="http://www.w3.org/2000/svg">
<path d="M50.9807 0.954889C50.3965 1.02813 49.9659 1.53555 49.9887 2.12384V20.2603C49.984 20.5639 50.1018 20.8562 50.3151 21.0725C50.5278 21.2881 50.819 21.41 51.1219 21.41C51.4254 21.41 51.7166 21.2881 51.9293 21.0725C52.1426 20.8562 52.2598 20.5639 52.2557 20.2603V2.12384C52.2686 1.79043 52.1344 1.46876 51.8889 1.24376C51.6434 1.01876 51.3112 0.912709 50.9807 0.954889ZM21.5072 21.3594C21.066 21.4022 20.6904 21.6986 20.5457 22.1176C20.4009 22.5365 20.5134 23.0018 20.8345 23.3076L27.6355 30.1092C27.8471 30.3254 28.1359 30.4485 28.4383 30.452C28.7406 30.4555 29.0318 30.3383 29.248 30.1274C29.4637 29.9159 29.5873 29.627 29.5902 29.3247C29.5937 29.0223 29.4765 28.7311 29.265 28.5149L22.464 21.7139C22.2191 21.4508 21.864 21.3195 21.5072 21.3594ZM80.5592 21.3594C80.2633 21.3711 79.9838 21.4983 79.7799 21.7139L72.9783 28.5149C72.7674 28.7311 72.6502 29.0223 72.6531 29.3246C72.6566 29.627 72.7797 29.9159 72.9959 30.1274C73.2121 30.3383 73.5033 30.4555 73.8056 30.452C74.108 30.4485 74.3968 30.3254 74.6084 30.1092L81.4094 23.3076C81.751 22.9789 81.8518 22.4721 81.6619 22.0379C81.4727 21.6037 81.0326 21.333 80.5592 21.3594ZM46.4822 30.463C46.0861 30.5421 45.7626 30.8257 45.632 31.2072L44.4982 34.537C44.2925 35.1335 44.6101 35.7839 45.2066 35.9896C45.8031 36.1946 46.4535 35.8777 46.6591 35.2812L47.5093 32.7306H62.7778L53.5323 49.1676C53.3284 49.5197 53.3296 49.9539 53.5346 50.3054C53.7397 50.657 54.1171 50.8715 54.5237 50.8679H62.1403L42.4798 72.4409L46.5532 59.1214C46.6545 58.7774 46.586 58.4054 46.3698 58.1189C46.1535 57.8329 45.8143 57.6659 45.4551 57.6694H39.0789L44.3218 42.1534C44.4636 41.8628 44.4742 41.5247 44.3511 41.2253C44.2281 40.9259 43.9826 40.6939 43.6773 40.5866C43.3715 40.48 43.0351 40.5087 42.7521 40.6657C42.4691 40.8234 42.267 41.0941 42.1961 41.4099L36.4574 58.4139C36.3302 58.7613 36.3806 59.1486 36.5921 59.4522C36.8042 59.7557 37.1505 59.9367 37.5203 59.9373H43.8965L38.8662 76.5873C38.7174 77.0907 38.9336 77.6303 39.3889 77.8916C39.8441 78.1529 40.4195 78.0674 40.7793 77.6854L65.5758 50.4799C65.8664 50.1453 65.9356 49.6719 65.7527 49.2682C65.5699 48.8644 65.1686 48.6043 64.7256 48.6025H56.4363L65.7175 32.1295C65.9033 31.7797 65.8927 31.3584 65.69 31.018C65.4873 30.6776 65.1216 30.4678 64.7255 30.4643H46.694C46.6237 30.4578 46.5523 30.4578 46.4819 30.4643L46.4822 30.463ZM1.03219 50.8675C0.406403 50.9261 -0.0535595 51.481 0.00503046 52.1074C0.0636235 52.7332 0.618504 53.1931 1.24487 53.1345H19.3814C19.6849 53.1386 19.9773 53.0214 20.1935 52.8082C20.4091 52.5955 20.531 52.3042 20.531 52.0007C20.531 51.6978 20.4091 51.4066 20.1935 51.1939C19.9773 50.9806 19.6849 50.8629 19.3814 50.8675H1.24487C1.17398 50.8605 1.10309 50.8605 1.03219 50.8675ZM28.4147 73.504C28.1188 73.5158 27.8393 73.6429 27.6354 73.8579L20.8344 80.6596C20.6205 80.8752 20.5022 81.167 20.5045 81.4705C20.5069 81.774 20.6305 82.064 20.8473 82.2761C21.0641 82.4883 21.3565 82.6054 21.66 82.6013C21.9635 82.5972 22.253 82.4719 22.4639 82.2539L29.2649 75.4523C29.6065 75.1236 29.7073 74.6167 29.5174 74.1826C29.3282 73.7478 28.8881 73.4777 28.4147 73.504ZM73.6517 73.504C73.2105 73.5468 72.8349 73.8433 72.6902 74.2622C72.5454 74.6812 72.6579 75.1464 72.9784 75.4523L79.78 82.2539C80.2213 82.6992 80.939 82.7051 81.3873 82.2668C81.8355 81.8285 81.8455 81.1101 81.4096 80.6595L74.6086 73.8579C74.3636 73.5954 74.0085 73.4636 73.6517 73.504ZM50.9807 82.5726C50.3965 82.6458 49.9659 83.1533 49.9887 83.7415V101.878C49.984 102.182 50.1018 102.474 50.3151 102.69C50.5278 102.906 50.819 103.028 51.1219 103.028C51.4254 103.028 51.7166 102.906 51.9293 102.69C52.1426 102.474 52.2598 102.182 52.2557 101.878V83.7415C52.2686 83.4087 52.1344 83.0865 51.8889 82.8615C51.6434 82.6365 51.3112 82.5304 50.9807 82.5726Z" fill="white"/>
</svg>
