<svg width="81" height="102" viewBox="0 0 81 102" fill="none" xmlns="http://www.w3.org/2000/svg">
<g clip-path="url(#clip0_112_188)">
<path d="M30.6926 42.492C29.9735 43.7994 29.3088 45.1436 28.5233 46.41C25.0191 52.0782 21.5153 57.7492 17.9251 63.3614C16.9668 64.8591 16.762 66.1626 17.3286 67.9299C19.8445 75.761 22.1818 83.6482 24.5698 91.5227C24.7658 92.1656 24.8502 92.8439 25.0397 93.7664C29.2856 95.0532 33.6253 96.084 38.1857 96.1055C42.649 90.1044 47.3233 84.4214 52.9055 79.5508C51.9951 81.7815 50.2 83.3083 48.7028 85.0625C47.2006 86.8232 45.6328 88.5281 44.1241 90.2838C42.5755 92.0888 41.0661 93.9268 39.2089 96.1455C42.6501 96.2366 45.5304 95.7186 48.3892 95.0831C48.7679 95.0005 49.0691 94.488 49.3755 94.1451C52.0116 91.2008 54.6311 88.241 57.2839 85.3121C57.943 84.5819 58.7117 83.9545 59.4303 83.2779C59.6187 83.47 59.8046 83.6653 59.993 83.8574C56.8333 87.3702 53.6737 90.8829 50.2172 94.7227C51.1317 94.6011 51.6735 94.6288 52.1415 94.4521C56.3562 92.8588 60.5771 91.2676 64.7559 89.5794C65.8988 89.1193 66.9438 88.3818 67.9733 87.6815C69.6989 86.5073 70.2669 84.9823 70.0945 82.7459C68.2385 58.7715 67.1566 34.7793 68.6805 10.7427C68.7281 9.98523 68.7847 9.2295 68.8523 8.27279C59.478 15.1588 48.6031 17.4969 37.9005 20.3432C28.7118 22.7857 19.3606 23.4806 9.91305 23.4078C7.43003 23.3917 1.56691 22.4315 1.5248 20.5181C2.53322 21.5401 5.55054 22.512 7.21965 22.1815L6.66257 17.9923C6.92166 17.9285 6.83421 17.9489 7.09616 17.8848C7.60795 19.2838 8.12221 20.6795 8.75678 22.4113C10.2566 22.4261 11.8376 22.4388 13.8324 22.4582C13.3038 19.8173 12.8299 17.4568 12.3561 15.0962C14.3277 17.0405 14.195 19.6519 15.1133 22.3142C17.1999 22.1923 19.3301 22.0704 21.4428 21.9479C20.645 18.6826 19.9241 15.7329 19.2032 12.7831C19.4722 12.7063 19.7412 12.6294 20.0102 12.5526C20.8845 15.5406 21.7588 18.5287 22.7085 21.7766L28.2013 21.0462C27.4608 17.7088 26.7196 14.3656 25.978 11.0196C27.7464 12.1576 27.6065 13.9924 28.0735 15.5793C28.5618 17.2396 28.9492 18.928 29.4024 20.6957L34.8381 19.9729C35.0665 16.2661 33.5047 12.8765 33.82 9.40753C34.2944 9.38845 34.1496 9.39304 34.624 9.37396C35.1914 12.6346 35.7592 15.8981 36.381 19.4802C38.4166 19.0188 40.2352 18.6097 42.2455 18.1546L40.9216 8.19908C42.7526 11.054 42.4207 14.4196 43.4527 17.8503C45.2437 17.3422 46.9283 16.8658 48.8316 16.3281L47.653 7.46531C49.3625 9.93151 49.4442 12.799 50.0174 15.8623C51.7509 15.2944 53.2394 14.8089 54.9509 14.2497L54.0583 7.53778C56.2131 9.04399 55.2671 11.5318 56.442 13.6964C57.9152 13.0956 59.4351 12.4739 60.8645 11.8936C60.9909 10.5916 61.0979 9.51523 61.2016 8.43635C61.4722 8.41504 61.4089 8.42052 61.6795 8.39921C61.8869 9.19319 62.0939 9.98428 62.385 11.1016C64.7231 10.1158 66.7522 8.88361 68.4996 7.01988C67.5422 4.82923 65.5733 4.34872 63.7283 4.16569C60.1063 3.80819 56.449 3.57862 52.8155 3.65982C43.5357 3.86398 34.4991 5.63489 25.6277 8.31983C22.9632 9.12601 20.2304 9.7036 17.5759 10.5407C10.0334 12.0866 2.54128 18.0357 2.14712 20.9987C2.13764 21.0587 1.54654 20.5505 1.5248 20.5181C1.31622 18.9497 3.63196 16.1331 5.14218 15.1107C9.57607 12.1034 14.4684 10.0943 19.5896 8.75601C26.4622 6.96185 33.3723 5.25366 40.3391 3.88416C46.8525 2.60429 53.4922 2.14384 60.1344 2.70709C62.3994 2.89882 64.6645 3.46318 66.8521 4.12292C68.5398 4.63202 69.408 5.88974 69.3838 7.87349C69.3069 14.3593 69.3291 20.8467 69.412 27.3318C69.5498 38.2754 69.7051 49.2196 69.9676 60.1612C70.1557 68.0055 70.4457 75.8509 70.8679 83.6847C70.9821 85.8114 70.1789 87.2298 68.7092 88.4257C67.8194 89.1485 66.8504 89.8231 65.8219 90.312C60.0858 93.0406 54.226 95.2987 47.9116 96.4787C41.2338 97.7247 34.7582 97.3418 28.2369 95.6974C25.5137 95.012 23.7865 93.7688 22.8775 90.8264C16.9927 71.7684 10.9038 52.7728 4.93512 33.7406C3.89875 30.4308 2.07703 24.3647 1.6013 20.8747C1.98677 21.1052 2.28866 21.4288 2.39845 21.7077C3.26762 23.957 4.42577 28.2482 5.33868 30.6296C6.2618 29.3478 7.04008 28.2673 7.81588 27.19C7.94876 29.1734 6.80788 30.5017 5.65979 32.1038C9.06994 42.5037 12.5282 53.0468 16.1281 64.0199C18.3105 61.535 19.3588 58.8546 20.8512 56.4732C22.3357 54.0987 23.7469 51.6752 25.2509 49.3157C26.7986 46.8917 28.4194 44.5137 30.0086 42.1164C30.2375 42.2415 30.4665 42.3665 30.6926 42.492Z" fill="black"/>
<path d="M36.3425 48.8261C36.5719 49.0421 37.03 49.3156 36.992 49.4674C36.8618 50.0187 36.6748 50.6246 36.3165 51.036C34.4021 53.2183 34.7016 55.6021 35.5493 58.0831C35.8871 59.071 36.1477 60.0897 36.5781 61.5553C38.1641 59.4402 39.5648 57.5726 40.9631 55.7084C41.2372 58.0544 39.5161 59.3278 38.5422 60.9714C37.5274 62.679 36.358 64.2957 35.1456 66.1147C36.3563 66.2295 37.2226 66.3138 38.0885 66.3953C38.1191 66.5819 38.1494 66.7657 38.18 66.9523C37.4277 67.1345 36.6762 67.4545 35.9196 67.473C34.3924 67.5147 33.5417 68.3349 32.7399 69.5448C30.5571 72.8367 28.2718 76.0571 25.9898 79.28C25.4755 80.0057 24.8165 80.6273 24.2248 81.2957C24.0591 81.1652 23.8934 81.0347 23.7278 80.9041C26.5146 76.7309 29.3043 72.5573 32.196 68.2322C30.0795 67.6921 27.88 67.6208 28.0361 64.0703C25.7257 67.4525 23.8242 70.2346 21.9231 73.0195C21.7515 72.9103 21.5828 72.8007 21.4112 72.6915C21.8712 70.3329 23.6143 68.634 24.8128 66.6672C26.0638 64.6142 27.4421 62.644 28.8727 60.4762C28.1853 59.6375 27.5366 58.8494 26.6761 57.8019C28.1253 56.7583 29.4892 55.5764 31.0302 54.7201C33.1044 53.564 34.7129 52.0562 35.7205 49.9006C35.929 49.5442 36.1376 49.1879 36.3458 48.8286L36.3425 48.8261ZM35.9149 62.3418C34.118 62.0174 32.5299 61.7327 30.6736 61.3986C30.1792 62.952 29.7082 64.4406 29.2403 65.9083C33.5087 67.5618 33.6498 66.3488 35.912 62.3422L35.9149 62.3418Z" fill="black"/>
<path d="M36.3425 48.8265C36.134 49.1828 35.9229 49.5424 35.7172 49.8984C35.3456 50.0564 34.9715 50.2176 34.1709 50.5618C34.4107 49.6966 34.4347 49.221 34.6558 48.8718C36.6215 45.7848 38.5256 42.6503 40.6417 39.6666C42.2043 37.4636 43.3664 37.6288 44.6876 39.953C45.394 41.197 46.0541 42.4648 46.7942 43.8306C48.2357 43.2105 49.5148 42.6589 51.0608 41.9927L52.0561 49.4773C48.9407 49.8241 46.2226 49.3523 42.9977 48.5253C44.0041 47.0829 44.7472 46.0217 45.7 44.6568C44.8598 43.1283 43.9156 41.4083 42.7179 39.2262C40.2489 42.5737 37.8245 45.3608 36.3458 48.829L36.3425 48.8265Z" fill="black"/>
<path d="M52.9764 66.634C52.9854 70.4853 52.5821 70.8206 48.9869 69.8552C47.4639 69.4474 45.7759 69.308 44.4375 67.6639C46.4755 65.383 48.4805 63.1388 50.4403 60.9475C52.5177 61.7188 51.8855 63.7012 52.8539 65.2097C54.5776 64.4582 56.3311 63.691 58.4256 62.7757C56.8331 59.7013 55.3966 56.9259 53.9605 54.1534L54.4732 53.8534C56.2863 56.5083 58.0209 59.2294 59.1847 62.2728C59.6085 63.3813 58.7453 64.0859 57.8392 64.5115C56.287 65.2402 54.6951 65.8891 52.9736 66.6344L52.9764 66.634Z" fill="black"/>
<path d="M25.7323 91.1007C26.7885 86.6647 42.8117 64.1858 46.3007 62.4279C44.5625 64.754 42.802 67.0654 41.0929 69.4141C39.3344 71.828 37.6108 74.2637 35.9005 76.7122C34.1902 79.1608 32.5375 81.6487 30.8171 84.0868C29.1532 86.4471 27.7239 88.9962 25.7319 91.0979L25.7323 91.1007Z" fill="black"/>
<path d="M47.4845 74.1951C42.2863 80.8162 37.0878 87.4345 31.8897 94.0556C31.7072 93.9302 31.5244 93.802 31.3419 93.6766C32.4664 91.1093 34.5441 89.1489 36.1531 86.9015C37.7792 84.6285 39.5499 82.4594 41.289 80.2711C43.0754 78.0236 44.8987 75.8124 46.7083 73.5853C46.9651 73.7889 47.2252 73.9949 47.482 74.1984L47.4845 74.1951Z" fill="black"/>
<path d="M25.8018 36.7928C22.64 42.8702 17.5078 47.6253 13.952 53.6055C13.969 53.1426 13.8354 52.597 14.0277 52.2281C14.6951 50.9481 15.3919 49.6701 16.228 48.4996C18.9126 44.739 21.6581 41.0203 24.3975 37.2993C24.6487 36.9578 25.0123 36.6953 25.3215 36.396C25.4818 36.5302 25.6418 36.6615 25.8022 36.7956L25.8018 36.7928Z" fill="black"/>
<path d="M22.199 30.7404C21.3342 33.1822 14.1083 42.4232 12.1493 43.8984C12.67 41.4936 17.7872 34.7013 22.199 30.7404Z" fill="black"/>
<path d="M16.749 27.8564C14.2889 31.2937 11.8289 34.731 9.36883 38.1683C9.15034 38.0125 8.93185 37.8567 8.71336 37.7009C10.7826 33.9928 13.5763 30.7899 15.9244 27.2765C16.2005 27.4716 16.4766 27.6667 16.7522 27.8589L16.749 27.8564Z" fill="black"/>
</g>
<defs>
<clipPath id="clip0_112_188">
<rect width="69" height="93" fill="white" transform="translate(0 9.0957) rotate(-7.5748)"/>
</clipPath>
</defs>
</svg>
