<svg width="258" height="228" viewBox="0 0 258 228" fill="none" xmlns="http://www.w3.org/2000/svg">
<path d="M246.402 155.819C247.415 155.441 248.432 155.072 249.441 154.685L249.439 154.691C251.187 154.02 251.395 151.038 249.716 150.167C241.657 145.973 233.284 142.551 224.569 139.985C221.338 139.035 219.686 144.009 222.924 144.962C228.543 146.614 234.037 148.621 239.379 150.976L232.044 155.379C229.001 156.394 225.952 157.379 222.884 158.312C219.677 159.288 220.738 164.424 223.97 163.441C230.701 161.396 237.366 159.153 243.964 156.733C244.05 156.739 244.134 156.752 244.22 156.759C245.236 156.859 245.967 156.447 246.402 155.819Z" fill="#E01F26"/>
<path d="M2.49999 60.5C38.7414 100.082 112.997 146.798 238.091 152.704" stroke="#E01F26" stroke-width="5" stroke-linecap="round"/>
</svg>
