<svg width="150" height="131" viewBox="0 0 150 131" fill="none" xmlns="http://www.w3.org/2000/svg">
<g clip-path="url(#clip0_138_3)">
<path d="M98.7202 60.4724L96.7541 69.7928H100.73L98.8519 60.4724H98.7202Z" fill="white"/>
<path d="M146.141 43.0659H3.86395C2.82479 43.0659 1.98077 43.9181 1.98077 44.9564V86.4893C1.98077 87.5326 2.82479 88.3799 3.86395 88.3799H146.141C147.175 88.3799 148.024 87.5374 148.024 86.4893V44.9613C148.024 43.9181 147.175 43.0708 146.141 43.0708V43.0659ZM22.9006 78.7656C22.9006 78.9958 22.7249 79.1574 22.4615 79.1574H9.38662C9.12317 79.1574 8.95241 78.9958 8.95241 78.7656V52.6851C8.95241 52.45 9.12317 52.2933 9.38662 52.2933H14.2409C14.5044 52.2933 14.6751 52.4549 14.6751 52.6851V74.2597C14.6751 74.4164 14.7678 74.4997 14.9386 74.4997H22.4615C22.7249 74.4997 22.9006 74.6515 22.9006 74.8915V78.7705V78.7656ZM32.0432 78.7656C32.0432 78.9958 31.8627 79.1574 31.5993 79.1574H26.745C26.4815 79.1574 26.3059 78.9958 26.3059 78.7656V52.6851C26.3059 52.45 26.4815 52.2933 26.745 52.2933H31.5993C31.8627 52.2933 32.0432 52.4549 32.0432 52.6851V78.7656ZM50.4456 56.5592C50.4456 56.7943 50.27 56.951 50.0114 56.951H42.5763C42.4007 56.951 42.3129 57.0294 42.3129 57.1861V63.2691C42.3129 63.4307 42.4007 63.5091 42.5763 63.5091H49.0064C49.265 63.5091 49.4455 63.6658 49.4455 63.9009V67.8142C49.4455 68.0493 49.265 68.2109 49.0064 68.2109H42.5763C42.4007 68.2109 42.3129 68.2893 42.3129 68.446V78.7607C42.3129 78.9909 42.1372 79.1525 41.8738 79.1525H37.0244C36.756 79.1525 36.5853 78.9909 36.5853 78.7607V52.6802C36.5853 52.4451 36.7609 52.2884 37.0244 52.2884H50.0065C50.2651 52.2884 50.4407 52.45 50.4407 52.6802V56.5543L50.4456 56.5592ZM67.8528 56.5592C67.8528 56.7943 67.6771 56.951 67.4137 56.951H59.9834C59.8078 56.951 59.72 57.0294 59.72 57.1861V63.034C59.72 63.1908 59.8078 63.2691 59.9834 63.2691H66.4087C66.6721 63.2691 66.8478 63.4307 66.8478 63.6658V67.54C66.8478 67.775 66.677 67.9367 66.4087 67.9367H59.9834C59.8078 67.9367 59.72 68.015 59.72 68.1767V74.2597C59.72 74.4164 59.8078 74.4997 59.9834 74.4997H67.4137C67.6771 74.4997 67.8528 74.6515 67.8528 74.8915V78.7705C67.8528 79.0007 67.6771 79.1623 67.4137 79.1623H54.4315C54.1681 79.1623 53.9924 79.0007 53.9924 78.7705V52.69C53.9924 52.4549 54.1681 52.2982 54.4315 52.2982H67.4137C67.6771 52.2982 67.8528 52.4598 67.8528 52.69V56.5641V56.5592ZM87.5285 65.7229C87.5285 72.6336 87.3968 73.7405 86.9138 74.9698C85.821 77.933 83.245 79.51 79.3518 79.51C75.4586 79.51 72.7949 77.933 71.702 75.009C71.263 73.7454 71.1312 72.6385 71.1312 65.7229C71.1312 58.8073 71.263 57.7004 71.702 56.4368C72.7949 53.5128 75.3757 51.9308 79.3518 51.9308C84.1671 51.9308 86.9626 54.2622 87.3529 58.6065C87.4017 58.8416 87.2651 59.0424 87.0016 59.0815L82.3669 59.7917C82.1034 59.8309 81.9326 59.7134 81.8887 59.4342C81.757 57.4947 80.8837 56.5886 79.3909 56.5886C78.3468 56.5886 77.4687 57.1029 77.2101 57.8522C76.9905 58.484 76.9466 58.7975 76.9466 65.7131C76.9466 72.6287 76.9905 72.9422 77.2101 73.5348C77.4687 74.3233 78.3907 74.8376 79.4836 74.8376C80.5764 74.8376 81.4936 74.3233 81.757 73.5348C81.9326 72.9813 82.0156 72.5846 82.0156 68.637C82.0156 68.4803 81.9326 68.402 81.757 68.402H79.8738C79.6104 68.402 79.4396 68.2403 79.4396 68.0052V64.5278C79.4396 64.2927 79.6104 64.1311 79.8738 64.1311H87.0894C87.3529 64.1311 87.5285 64.2879 87.5285 64.5278V65.7131V65.7229ZM107.858 79.1574H103.004C102.701 79.1574 102.569 78.9958 102.526 78.7656L101.564 73.9021H95.9198L94.9197 78.7656C94.8758 78.9958 94.7441 79.1574 94.4367 79.1574H89.5873C89.3239 79.1574 89.1921 78.9958 89.236 78.7656L95.7052 52.6851C95.7881 52.45 95.9198 52.2933 96.1882 52.2933H101.345C101.608 52.2933 101.784 52.4549 101.828 52.6851L108.209 78.7656C108.253 78.9958 108.121 79.1574 107.863 79.1574H107.858ZM124.036 56.5592C124.036 56.7943 123.865 56.951 123.601 56.951H118.923C118.747 56.951 118.659 57.0294 118.659 57.1861V78.7607C118.659 78.9909 118.489 79.1525 118.225 79.1525H113.371C113.107 79.1525 112.937 78.9909 112.937 78.7607V57.1861C112.937 57.0294 112.849 56.951 112.673 56.951H107.995C107.731 56.951 107.555 56.7943 107.555 56.5592V52.6851C107.555 52.45 107.731 52.2933 107.995 52.2933H123.606C123.87 52.2933 124.041 52.4549 124.041 52.6851V56.5592H124.036ZM141.048 56.5592C141.048 56.7943 140.872 56.951 140.609 56.951H133.173C132.998 56.951 132.91 57.0294 132.91 57.1861V63.034C132.91 63.1908 132.998 63.2691 133.173 63.2691H139.594C139.862 63.2691 140.033 63.4307 140.033 63.6658V67.54C140.033 67.775 139.862 67.9367 139.594 67.9367H133.173C132.998 67.9367 132.91 68.015 132.91 68.1767V74.2597C132.91 74.4164 132.998 74.4997 133.173 74.4997H140.609C140.872 74.4997 141.048 74.6515 141.048 74.8915V78.7705C141.048 79.0007 140.872 79.1623 140.609 79.1623H127.622C127.358 79.1623 127.182 79.0007 127.182 78.7705V52.69C127.182 52.4549 127.363 52.2982 127.622 52.2982H140.609C140.872 52.2982 141.048 52.4598 141.048 52.69V56.5641V56.5592Z" fill="white"/>
<path d="M31.5992 52.2932H26.7449C26.4815 52.2932 26.3058 52.4548 26.3058 52.685V78.7655C26.3058 78.9957 26.4815 79.1573 26.7449 79.1573H31.5992C31.8627 79.1573 32.0432 78.9957 32.0432 78.7655V52.685C32.0432 52.4499 31.8627 52.2932 31.5992 52.2932Z" fill="#006556"/>
<path d="M50.0114 52.2932H37.0292C36.7609 52.2932 36.5901 52.4548 36.5901 52.685V78.7655C36.5901 78.9957 36.7658 79.1573 37.0292 79.1573H41.8786C42.1421 79.1573 42.3177 78.9957 42.3177 78.7655V68.4509C42.3177 68.2941 42.4055 68.2158 42.5812 68.2158H49.0113C49.2698 68.2158 49.4504 68.0591 49.4504 67.8191V63.9058C49.4504 63.6658 49.2698 63.5139 49.0113 63.5139H42.5812C42.4055 63.5139 42.3177 63.4356 42.3177 63.274V57.191C42.3177 57.0342 42.4055 56.9559 42.5812 56.9559H50.0163C50.2749 56.9559 50.4505 56.7991 50.4505 56.564V52.6899C50.4505 52.4548 50.2749 52.2981 50.0163 52.2981L50.0114 52.2932Z" fill="#006556"/>
<path d="M67.4136 52.2932H54.4315C54.168 52.2932 53.9924 52.4549 53.9924 52.685V78.7655C53.9924 78.9957 54.168 79.1574 54.4315 79.1574H67.4136C67.6771 79.1574 67.8527 78.9957 67.8527 78.7655V74.8865C67.8527 74.6465 67.6771 74.4947 67.4136 74.4947H59.9834C59.8078 74.4947 59.7199 74.4114 59.7199 74.2547V68.1717C59.7199 68.0101 59.8078 67.9317 59.9834 67.9317H66.4086C66.6721 67.9317 66.8477 67.775 66.8477 67.535V63.6609C66.8477 63.4258 66.6769 63.2642 66.4086 63.2642H59.9834C59.8078 63.2642 59.7199 63.1858 59.7199 63.0291V57.1812C59.7199 57.0244 59.8078 56.9461 59.9834 56.9461H67.4136C67.6771 56.9461 67.8527 56.7894 67.8527 56.5543V52.6801C67.8527 52.4451 67.6771 52.2883 67.4136 52.2883V52.2932Z" fill="#006556"/>
<path d="M87.0894 64.1458H79.8738C79.6104 64.1458 79.4396 64.3026 79.4396 64.5426V68.02C79.4396 68.2551 79.6104 68.4167 79.8738 68.4167H81.757C81.9326 68.4167 82.0156 68.495 82.0156 68.6518C82.0156 72.5993 81.9326 72.9961 81.757 73.5495C81.4935 74.338 80.5715 74.8523 79.4835 74.8523C78.3956 74.8523 77.4686 74.338 77.2101 73.5495C76.9905 72.9569 76.9466 72.5993 76.9466 65.7278C76.9466 58.8563 76.9905 58.4987 77.2101 57.8669C77.4686 57.1176 78.3468 56.6033 79.3908 56.6033C80.8837 56.6033 81.757 57.5094 81.8887 59.4489C81.9326 59.7232 82.1034 59.8407 82.3668 59.8064L87.0016 59.0963C87.265 59.0571 87.4016 58.8563 87.3528 58.6212C86.9626 54.2769 84.1671 51.9456 79.3518 51.9456C75.3757 51.9456 72.7949 53.5275 71.702 56.4515C71.2629 57.7151 71.1312 58.822 71.1312 65.7376C71.1312 72.6532 71.2629 73.7552 71.702 75.0237C72.7949 77.9477 75.3757 79.5248 79.3518 79.5248C83.3279 79.5248 85.8258 77.9477 86.9138 74.9846C87.4016 73.7601 87.5285 72.6532 87.5285 65.7376V64.5524C87.5285 64.3173 87.348 64.1556 87.0894 64.1556V64.1458Z" fill="#006556"/>
<path d="M101.828 52.685C101.784 52.4499 101.608 52.2932 101.345 52.2932H96.1881C95.9247 52.2932 95.7929 52.4548 95.7051 52.685L89.236 78.7655C89.1921 78.9957 89.3238 79.1573 89.5872 79.1573H94.4367C94.744 79.1573 94.8757 78.9957 94.9196 78.7655L95.9198 73.9021H101.564L102.526 78.7655C102.574 78.9957 102.701 79.1573 103.004 79.1573H107.858C108.121 79.1573 108.253 78.9957 108.204 78.7655L101.823 52.685H101.828ZM96.754 69.7929L98.7201 60.4724H98.8519L100.725 69.7929H96.754Z" fill="#006556"/>
<path d="M123.601 52.2932H107.99C107.726 52.2932 107.551 52.4548 107.551 52.685V56.5592C107.551 56.7942 107.726 56.951 107.99 56.951H112.668C112.844 56.951 112.932 57.0293 112.932 57.1861V78.7606C112.932 78.9908 113.107 79.1525 113.366 79.1525H118.22C118.484 79.1525 118.654 78.9908 118.654 78.7606V57.1861C118.654 57.0293 118.742 56.951 118.918 56.951H123.597C123.86 56.951 124.031 56.7942 124.031 56.5592V52.685C124.031 52.4499 123.86 52.2932 123.597 52.2932H123.601Z" fill="#006556"/>
<path d="M133.183 56.9559H140.618C140.882 56.9559 141.057 56.7991 141.057 56.564V52.6899C141.057 52.4548 140.882 52.2981 140.618 52.2981H127.631C127.368 52.2981 127.192 52.4597 127.192 52.6899V78.7704C127.192 79.0006 127.373 79.1622 127.631 79.1622H140.618C140.882 79.1622 141.057 79.0006 141.057 78.7704V74.8914C141.057 74.6514 140.882 74.4996 140.618 74.4996H133.183C133.008 74.4996 132.92 74.4163 132.92 74.2596V68.1766C132.92 68.015 133.008 67.9366 133.183 67.9366H139.604C139.872 67.9366 140.043 67.7799 140.043 67.5399V63.6658C140.043 63.4307 139.872 63.269 139.604 63.269H133.183C133.008 63.269 132.92 63.1907 132.92 63.034V57.186C132.92 57.0293 133.008 56.951 133.183 56.951V56.9559Z" fill="#006556"/>
<path d="M22.4663 74.4996H14.9434C14.7678 74.4996 14.68 74.4163 14.68 74.2596V52.685C14.68 52.4499 14.5092 52.2932 14.2458 52.2932H9.39148C9.12803 52.2932 8.95728 52.4548 8.95728 52.685V78.7655C8.95728 78.9957 9.12803 79.1573 9.39148 79.1573H22.4663C22.7298 79.1573 22.9054 78.9957 22.9054 78.7655V74.8865C22.9054 74.6465 22.7298 74.4947 22.4663 74.4947V74.4996Z" fill="#006556"/>
<path d="M75 0C48.4844 0 25.6277 15.9764 15.441 38.8342H44.518C51.9287 30.2975 62.8326 24.8903 75 24.8903C87.1674 24.8903 98.0664 30.2926 105.482 38.8342H134.559C124.372 15.9764 101.521 0 75 0Z" fill="#006556"/>
<path d="M133.998 92.6458H105.243C97.842 100.908 87.1138 106.1 75.1805 106.1C63.2472 106.1 52.5141 100.908 45.1132 92.6458H15.48C25.7741 115.244 48.8502 130.995 75.1805 130.995C101.511 130.995 124.226 115.244 134.525 92.6458H133.998Z" fill="#006556"/>
<path d="M134.564 38.8343H105.482C98.0664 30.2975 87.1674 24.8904 75 24.8904C62.8326 24.8904 51.9287 30.2926 44.5131 38.8343H15.441C15.1093 39.5787 14.7922 40.3281 14.4848 41.0823H135.515C135.208 40.3232 134.896 39.5787 134.564 38.8343Z" fill="white"/>
<path d="M146.141 41.0823H3.86392C1.73193 41.0823 0 42.821 0 44.9613V86.4942C0 88.6345 1.73193 90.3732 3.86392 90.3732H146.141C148.263 90.3732 150 88.6345 150 86.4942V44.9613C150 42.821 148.263 41.0823 146.141 41.0823ZM148.024 86.4893C148.024 87.5325 147.175 88.3798 146.141 88.3798H3.86392C2.82476 88.3798 1.98075 87.5374 1.98075 86.4893V44.9613C1.98075 43.9181 2.82476 43.0708 3.86392 43.0708H146.141C147.175 43.0708 148.024 43.923 148.024 44.9613V86.4942V86.4893Z" fill="#006556"/>
<path d="M134.564 92.6409H105.487C98.0713 101.178 87.1674 106.585 75.0049 106.585C62.8423 106.585 51.9287 101.178 44.518 92.6409H15.4459C15.1142 91.8964 14.7922 91.1471 14.4897 90.3928H135.515C135.213 91.1471 134.896 91.8964 134.564 92.6409Z" fill="white"/>
<path d="M28.3354 29.4991C28.2475 29.4355 28.2378 29.3326 28.3012 29.2445L29.5062 27.6478C29.5697 27.5596 29.6721 27.5498 29.7599 27.6135L39.21 34.7985C39.2978 34.8622 39.3075 34.965 39.2441 35.0532L38.0391 36.6498C37.9756 36.738 37.8732 36.7478 37.7854 36.6841L28.3354 29.4991Z" fill="white"/>
<path d="M32.2383 24.4494C32.1651 24.3711 32.1651 24.2682 32.2432 24.1948L33.6483 22.8528C33.7653 22.7401 33.8678 22.7205 33.98 22.7842L39.7515 26.1588L39.8051 26.1098L36.6925 20.2031C36.634 20.0856 36.6584 19.9876 36.7755 19.875L38.1708 18.5477C38.2488 18.4742 38.3513 18.4742 38.4245 18.5526L46.5914 27.1775C46.6646 27.2559 46.6646 27.3587 46.5865 27.4322L45.3229 28.637C45.2449 28.7105 45.1424 28.7105 45.0692 28.6321L40.2052 23.4944L40.1271 23.5679L42.5275 28.0444C42.5762 28.1472 42.5714 28.2501 42.4835 28.3383L41.7664 29.0239C41.6737 29.1121 41.5761 29.1072 41.4737 29.0533L37.1463 26.4183L37.0682 26.4918L41.9323 31.6295C42.0054 31.7079 42.0054 31.8108 41.9274 31.8842L40.6638 33.0891C40.5857 33.1625 40.4833 33.1625 40.4101 33.0842L32.2432 24.4592L32.2383 24.4494Z" fill="white"/>
<path d="M48.4892 26.0952C48.3965 26.1539 48.2989 26.1295 48.2404 26.0364L41.9859 15.9274C41.9273 15.8344 41.9517 15.7364 42.0444 15.6777L44.4838 14.1545C46.3767 12.9741 48.094 13.1553 49.5625 15.5307C51.0212 17.8865 50.387 19.5616 48.538 20.7125L48.0355 21.026C47.9769 21.0652 47.9623 21.1142 48.0013 21.1729L50.2357 24.7875C50.2943 24.8805 50.2699 24.9785 50.1772 25.0373L48.4843 26.0952H48.4892ZM47.5671 16.7797C46.8353 15.5993 46.2938 15.472 45.5132 15.9568L45.0692 16.2311C45.0107 16.2703 44.996 16.3193 45.0351 16.378L46.7963 19.2285C46.8353 19.2873 46.8841 19.302 46.9426 19.2628L47.3866 18.9885C48.1623 18.5037 48.2892 17.9551 47.5622 16.7797H47.5671Z" fill="white"/>
<path d="M51.9238 10.4077C51.9141 10.2951 51.9385 10.2069 52.036 10.1677L53.9973 9.3547C54.0948 9.31552 54.1924 9.3547 54.2461 9.44776L61.1884 19.4441C61.247 19.5371 61.2226 19.6253 61.125 19.6645L59.2809 20.4285C59.1638 20.4775 59.0857 20.4285 59.0321 20.3354L57.8222 18.4351L55.6804 19.3216L56.139 21.5305C56.1634 21.6382 56.139 21.7264 56.0268 21.7705L54.1827 22.5345C54.0851 22.5737 54.007 22.5345 53.9826 22.4219L51.9189 10.4028L51.9238 10.4077ZM56.7976 16.8336L54.4656 13.1945L54.4168 13.2141L55.2852 17.4556L56.7976 16.8287V16.8336Z" fill="white"/>
<path d="M63.5448 19.1108C63.4423 19.1353 63.3545 19.0815 63.3301 18.9786L61.0762 9.39862C61.0616 9.33005 61.0176 9.30067 60.9445 9.32026L59.0759 9.76105C58.9735 9.78554 58.8857 9.73167 58.8613 9.62881L58.4563 7.90971C58.4319 7.80685 58.4856 7.71869 58.5881 7.6942L64.8279 6.21509C64.9352 6.1906 65.0182 6.24447 65.0426 6.34732L65.4475 8.06643C65.4719 8.17418 65.4182 8.25745 65.3158 8.28193L63.4472 8.72273C63.3789 8.73742 63.3497 8.7815 63.3692 8.85497L65.6231 18.435C65.6475 18.5378 65.5939 18.626 65.4914 18.6505L63.5497 19.1108H63.5448Z" fill="white"/>
<path d="M71.2629 17.8032C71.1556 17.8081 71.0775 17.7445 71.0726 17.6318L70.4921 7.80693C70.4921 7.73347 70.4481 7.69918 70.3798 7.70408L68.4625 7.81673C68.3552 7.82163 68.2771 7.75796 68.2723 7.64531L68.1698 5.88212C68.1649 5.77437 68.2332 5.69601 68.3406 5.69111L74.7414 5.30908C74.8487 5.30419 74.9268 5.37275 74.9317 5.4805L75.0341 7.24369C75.039 7.35144 74.9707 7.42981 74.8634 7.43471L72.946 7.54735C72.8729 7.54735 72.8387 7.59143 72.8436 7.66L73.4241 17.4849C73.429 17.5926 73.3656 17.671 73.2534 17.6759L71.2629 17.7934V17.8032Z" fill="white"/>
<path d="M77.0734 15.6922C76.9368 15.1143 76.9368 14.6098 77.2783 11.4704C77.6198 8.33583 77.7271 7.83626 77.9808 7.3024C78.5711 6.0094 79.7225 5.40698 81.313 5.5784C82.9034 5.74982 83.8938 6.58733 84.1963 7.97829C84.3329 8.55623 84.3329 9.0607 83.9914 12.2002C83.6499 15.3347 83.5425 15.8343 83.2888 16.3681C82.6985 17.6611 81.5471 18.2636 79.9567 18.0872C78.3662 17.9158 77.3759 17.0783 77.0734 15.6873V15.6922ZM81.1081 15.4816C81.23 15.2025 81.2983 14.9037 81.6154 11.9455C81.9325 8.98723 81.9326 8.67867 81.874 8.38481C81.8057 8.03217 81.5276 7.7481 81.0837 7.69912C80.6397 7.65015 80.3079 7.86565 80.1616 8.19869C80.0396 8.47786 79.9713 8.77663 79.6542 11.7349C79.3322 14.6931 79.3371 15.0017 79.3956 15.2955C79.4639 15.6482 79.742 15.9322 80.186 15.9812C80.6299 16.0302 80.9617 15.8098 81.1081 15.4816Z" fill="white"/>
<path d="M89.0408 19.7966C88.9433 19.7574 88.8993 19.6644 88.9384 19.5615L89.5531 17.9845C89.5775 17.9159 89.6312 17.8816 89.6702 17.8375L95.5636 11.5145L95.5783 11.4803L92.8852 10.4223C92.7828 10.3832 92.7437 10.2901 92.7828 10.1873L93.4219 8.54161C93.4609 8.43876 93.5536 8.39958 93.6561 8.43876L98.5055 10.3391C98.6079 10.3783 98.647 10.4713 98.6079 10.5742L97.9883 12.1708C97.9639 12.2394 97.9249 12.2835 97.8908 12.3276L92.0071 18.631L91.9924 18.6653L94.8367 19.7819C94.9392 19.8211 94.9782 19.9142 94.9392 20.017L94.3 21.6627C94.261 21.7655 94.1683 21.8047 94.0659 21.7655L89.0457 19.7966H89.0408Z" fill="white"/>
<path d="M101.974 12.2442C102.028 12.1511 102.125 12.1267 102.218 12.1805L106.809 14.9086C106.902 14.9625 106.926 15.0604 106.872 15.1535L105.975 16.6718C105.921 16.7648 105.823 16.7893 105.731 16.7354L103.101 15.1731C103.038 15.1339 102.989 15.1486 102.955 15.2122L101.599 17.5093C101.564 17.573 101.574 17.6219 101.638 17.6562L103.911 19.008C104.004 19.0619 104.028 19.1598 103.974 19.2529L103.077 20.7712C103.023 20.8642 102.926 20.8887 102.833 20.8349L100.559 19.4831C100.496 19.4439 100.447 19.4586 100.413 19.5223L99.0031 21.9124C98.9641 21.976 98.9787 22.025 99.0421 22.0593L101.667 23.6217C101.76 23.6755 101.784 23.7735 101.73 23.8666L100.833 25.3849C100.779 25.4779 100.681 25.5024 100.589 25.4485L95.9978 22.7205C95.9051 22.6666 95.8807 22.5687 95.9344 22.4756L101.974 12.2344V12.2442Z" fill="white"/>
<path d="M105.716 29.6067C105.633 29.5381 105.619 29.4745 105.658 29.3667L107.619 24.9294L107.102 24.4837C107.048 24.4347 106.999 24.4396 106.95 24.4935L104.033 27.917C103.965 28.0002 103.862 28.0051 103.779 27.9366L102.267 26.6338C102.184 26.5652 102.179 26.4624 102.247 26.3791L109.956 17.3379C110.024 17.2546 110.126 17.2497 110.209 17.3183L112.419 19.2186C114.068 20.6389 114.469 22.3336 112.707 24.4004C111.702 25.5808 110.653 26.0069 109.639 25.8942L107.546 30.9291C107.516 31.0222 107.429 31.0662 107.36 31.0075L105.721 29.6018L105.716 29.6067ZM110.902 22.8576C111.732 21.883 111.688 21.3246 110.99 20.7271L110.595 20.3891C110.541 20.3402 110.487 20.3451 110.444 20.3989L108.409 22.7841C108.36 22.838 108.365 22.8919 108.419 22.936L108.814 23.2739C109.512 23.8714 110.053 23.8421 110.897 22.8576H110.902Z" fill="white"/>
<path d="M109.965 31.0468C110.273 30.5424 110.629 30.1799 113.073 28.1964C115.517 26.2128 115.942 25.9336 116.498 25.7377C117.83 25.2381 119.064 25.625 120.069 26.8691C121.074 28.118 121.196 29.411 120.43 30.6109C120.123 31.1154 119.767 31.4778 117.323 33.4614C114.878 35.445 114.454 35.7242 113.898 35.9201C112.566 36.4197 111.332 36.0327 110.327 34.7887C109.322 33.5398 109.2 32.2468 109.965 31.0468ZM112.976 33.7504C113.254 33.6378 113.517 33.4761 115.82 31.6003C118.123 29.7293 118.337 29.5089 118.503 29.2543C118.703 28.9555 118.703 28.5588 118.42 28.2061C118.137 27.8535 117.752 27.7751 117.415 27.9074C117.137 28.02 116.874 28.1817 114.571 30.0575C112.268 31.9284 112.054 32.1488 111.888 32.4035C111.688 32.7023 111.688 33.099 111.971 33.4516C112.254 33.8043 112.639 33.8826 112.976 33.7504Z" fill="white"/>
<path d="M64.145 116.787C64.6231 113.647 64.7743 113.109 65.0134 112.614C65.6378 111.38 66.7209 110.816 68.3211 111.056C70.2579 111.35 71.2337 112.56 71.0337 114.607C71.019 114.715 70.9702 114.798 70.8434 114.798L68.9309 114.833C68.8236 114.833 68.7407 114.769 68.7602 114.642C68.8724 113.672 68.6236 113.256 68.0382 113.162C67.6137 113.099 67.3356 113.236 67.1551 113.593C67.0429 113.848 66.9746 114.059 66.5062 117.144C66.0379 120.23 66.0428 120.445 66.072 120.725C66.1403 121.116 66.3599 121.337 66.7892 121.4C67.3746 121.489 67.7357 121.16 67.9162 120.205C67.9357 120.083 68.0333 120.039 68.1357 120.073L69.9506 120.68C70.0726 120.72 70.0921 120.813 70.0774 120.92C69.6627 122.938 68.3699 123.795 66.4331 123.502C64.8329 123.257 63.9644 122.395 63.74 121.028C63.6571 120.489 63.6717 119.926 64.145 116.787Z" fill="white"/>
<path d="M74.0048 122.14C73.7853 121.592 73.7121 121.087 73.595 117.933C73.4779 114.779 73.5121 114.274 73.6877 113.706C74.0877 112.34 75.1367 111.576 76.732 111.517C78.3273 111.458 79.4348 112.139 79.9324 113.471C80.1519 114.02 80.2251 114.524 80.3422 117.678C80.4593 120.832 80.4252 121.337 80.2495 121.905C79.8495 123.272 78.8005 124.036 77.2052 124.094C75.6099 124.153 74.5024 123.472 74.0048 122.14ZM77.9663 121.342C78.0443 121.048 78.0687 120.744 77.9614 117.771C77.8492 114.798 77.8053 114.495 77.7028 114.211C77.5809 113.873 77.2686 113.633 76.8198 113.647C76.371 113.667 76.0734 113.927 75.9807 114.274C75.9026 114.568 75.8782 114.872 75.9855 117.845C76.0978 120.818 76.1417 121.121 76.2441 121.405C76.3661 121.743 76.6783 121.983 77.1272 121.969C77.576 121.954 77.8736 121.69 77.9663 121.342Z" fill="white"/>
<path d="M84.5769 122.811C84.5623 122.737 84.5623 122.693 84.5915 122.605L85.7771 119.378C85.9332 118.971 85.9673 118.716 85.8551 118.153C85.8063 117.894 85.7771 117.805 85.7283 117.727C85.6307 117.556 85.4892 117.487 85.2745 117.531C85.0696 117.57 84.9623 117.688 84.9379 117.889C84.9233 117.977 84.933 118.07 85.016 118.486C85.0306 118.569 84.9867 118.609 84.9135 118.614L83.8792 118.726C83.8061 118.726 83.767 118.697 83.7524 118.623C83.6743 118.222 83.6548 117.977 83.6743 117.761C83.7573 117.061 84.2159 116.571 85.0794 116.4C85.9332 116.228 86.5284 116.498 86.8894 117.12C86.9918 117.306 87.0699 117.546 87.1431 117.903C87.2992 118.687 87.226 119.128 86.9967 119.745L86.0063 122.385V122.395L87.8554 122.027C87.9188 122.013 87.9676 122.047 87.9773 122.111L88.1676 123.061C88.1822 123.124 88.1481 123.173 88.0847 123.183L84.894 123.825C84.8306 123.835 84.7818 123.805 84.772 123.742L84.5915 122.826L84.5769 122.811Z" fill="white"/>
</g>
<defs>
<clipPath id="clip0_138_3">
<rect width="150" height="131" fill="white"/>
</clipPath>
</defs>
</svg>
