<svg width="348" height="6" viewBox="0 0 348 6" fill="none" xmlns="http://www.w3.org/2000/svg">
<path d="M346.054 2.71195C345.798 2.67583 345.191 2.67438 344.632 2.68016C344.539 2.68161 344.422 2.68161 344.329 2.68016C344.795 2.65704 345.331 2.65271 345.891 2.65126C346.194 2.65126 346.637 2.65126 346.544 2.62526C346.451 2.59781 345.984 2.60214 345.611 2.60359C345.075 2.60359 344.539 2.60937 344.002 2.60648C343.582 2.60503 343.582 2.58625 343.816 2.56747C344.329 2.56313 344.982 2.57036 345.191 2.53135C345.355 2.501 344.958 2.48511 344.562 2.47211C344.375 2.47211 344.165 2.47211 343.979 2.47211C343.629 2.45188 343.256 2.42876 342.766 2.45622C342.556 2.46777 342.626 2.48078 342.766 2.49234C342.813 2.49667 342.86 2.49956 342.929 2.50389C342.673 2.5169 342.416 2.53135 342.16 2.54435C342.043 2.54579 341.95 2.55013 341.903 2.55735C340.924 2.54724 340.877 2.51256 341.367 2.47066C342.113 2.40854 341.624 2.37675 340.714 2.35219H340.737C341.53 2.34785 342.323 2.34496 343.116 2.34063C343.816 2.3363 344.422 2.32185 344.702 2.27561C344.958 2.2525 345.261 2.23227 345.728 2.22794C346.078 2.23516 346.427 2.23949 346.801 2.23227C347.104 2.22649 347.407 2.21782 347.5 2.19904C347.617 2.17592 347.29 2.16581 347.034 2.1557C346.264 2.1268 345.495 2.09935 344.702 2.07045C344.702 2.07045 344.702 2.05745 344.702 2.05167C345.215 2.04589 345.938 2.05167 346.054 2.01121C346.148 1.96931 345.401 1.96498 344.935 1.95053C344.772 1.94475 344.608 1.94042 344.445 1.93464C344.795 1.87974 345.658 1.87251 346.777 1.86673C345.588 1.80894 346.194 1.73237 345.541 1.67891C345.308 1.63123 344.772 1.585 345.308 1.53298C345.261 1.52287 345.191 1.50264 345.145 1.50264C343.979 1.50698 343.489 1.44051 342.603 1.41306C341.74 1.38706 341.787 1.36972 342.51 1.31771C342.626 1.30904 342.79 1.30181 342.883 1.2917C343.116 1.26136 343.956 1.23969 343.629 1.2079C343.139 1.15733 343.443 1.0822 342.51 1.05042C341.67 1.02297 341.624 0.983955 341.717 0.936277C341.927 0.87126 342.556 0.813468 342.556 0.745562C342.65 0.738338 342.766 0.731114 342.86 0.72389C343.839 0.676211 343.909 0.657428 343.256 0.614084C342.999 0.596747 342.65 0.589522 342.3 0.585188C342.58 0.515837 342.393 0.442152 342.883 0.375691C343.069 0.351129 342.929 0.330902 342.603 0.315009C341.973 0.284668 341.39 0.255772 340.551 0.242768C339.385 0.225431 338.009 0.208093 337.216 0.160414C335.887 0.0795049 334.115 0.0809498 332.599 0.0404951C331.2 0.00148527 329.334 0.0115989 327.655 0.0289366C326.676 0.0390503 325.696 0.0347159 324.717 0.0376055C323.201 0.0433847 321.849 -0.0172972 320.333 0.00726451C319.96 0.0101541 319.587 0.0130437 319.214 0.0173782C317.651 -0.0100732 316.112 0.0217126 314.573 0.0289366H314.41C313.36 4.04601e-05 312.288 0.0202678 311.238 0.0289366C310.306 0.0289366 309.396 0.0448295 308.463 0.0246022C307.134 -0.00284916 305.782 -0.00140435 304.429 0.00148527C300.605 0.00870932 296.757 0.00870931 292.932 0.026047C286.45 0.0549432 279.967 0.0693913 273.461 0.0693913C271.292 0.0693913 269.123 0.0780601 266.978 0.056388C264.716 0.0390503 262.454 0.0376055 260.215 0.0549432V0.0578328C258.863 0.0650569 257.51 0.0708361 256.158 0.0549432C255.808 0.0506088 255.435 0.0419399 255.085 0.0419399C251.937 0.0462743 78.7195 0.0506088 75.5481 0.056388C71.9569 0.0477192 68.3657 0.0419399 64.7745 0.049164C64.2847 0.0376055 63.7717 0.0376055 63.2587 0.0433847C63.1654 0.0433847 63.0488 0.0448295 62.9555 0.0462743C62.0694 0.0520536 61.1833 0.056388 60.2738 0.0621672C58.5715 0.0737257 56.8458 0.0650569 55.1202 0.0852842C54.0941 0.0968427 52.8815 0.111291 51.8554 0.0968427C50.4796 0.0766153 49.1504 0.0896186 47.7979 0.0910634C44.5798 0.093953 41.3617 0.109846 38.1669 0.0982875C34.2959 0.0838394 30.4248 0.109846 26.5305 0.0852842C23.6622 0.0665017 20.7472 0.0809498 17.8789 0.109846C17.5058 0.112736 17.0628 0.108401 16.7829 0.11996C15.3371 0.177752 13.6348 0.183531 12.0957 0.219651C9.4606 0.278889 6.8255 0.34246 7.08201 0.566406C7.08201 0.57363 6.98873 0.580854 6.96541 0.588078C6.8255 0.647315 6.14923 0.676211 5.35637 0.702218C5.02989 0.713776 4.51686 0.751341 5.21645 0.76001C6.33579 0.773013 6.19587 0.804799 6.12591 0.856812C6.05595 0.920384 6.07927 0.98829 6.38242 1.04897C6.68558 1.10676 6.33579 1.13566 5.72948 1.166C5.40301 1.18334 5.07653 1.20068 4.75006 1.21946C4.49355 1.23391 4.02715 1.24547 4.35363 1.27292C4.58682 1.2917 4.9133 1.28014 5.16981 1.26714C5.58956 1.24836 5.98599 1.24836 6.31247 1.27436C6.56898 1.29603 6.40574 1.3206 6.17255 1.33793C5.70616 1.37261 5.56624 1.42318 4.77338 1.44196C4.23703 1.45496 4.09711 1.48386 4.07379 1.51709C3.8406 1.59078 3.67736 1.66446 2.48807 1.71069C1.8118 1.7367 2.02168 1.76704 2.79122 1.78004C3.02442 1.78438 3.28093 1.78438 3.35089 1.80894C3.16433 1.82628 2.79122 1.82917 2.46475 1.83639C2.46475 1.84506 2.46475 1.85373 2.46475 1.8624C2.32483 1.8624 2.18491 1.8624 2.045 1.8624C1.36873 1.8624 0.902342 1.88263 0.575869 1.91875C0.0628397 1.96065 -0.147036 2.00977 0.109479 2.05889C0.925661 2.22216 1.60193 2.38686 2.32483 2.55157C2.46475 2.57325 2.95446 2.58336 3.23429 2.59925C3.16433 2.61081 3.04774 2.62237 2.86118 2.63393C2.37147 2.66138 1.99836 2.69605 1.43869 2.72062C0.902342 2.74373 0.9723 2.78274 1.55529 2.78997C2.48807 2.80008 2.81454 2.83331 3.09437 2.88099C3.18765 2.89833 3.39753 2.90555 3.65404 2.90989C3.67736 2.92 3.70068 2.93156 3.74732 2.94167C3.93388 2.95034 4.12043 2.96045 4.28367 2.97201C4.12043 2.99946 3.63072 3.01969 2.97778 3.04281C4.54018 3.0587 5.47296 3.08904 5.68284 3.17573C5.72948 3.1974 6.12591 3.2263 6.33579 3.25375C6.42906 3.26386 6.52234 3.26964 6.66226 3.27542C6.7089 3.28409 6.75554 3.29276 6.80218 3.29998C7.17529 3.35922 8.08475 3.38812 8.73769 3.43146C9.32068 3.45747 9.62384 3.48636 9.39064 3.53549C9.20409 3.5745 8.87761 3.61206 9.01753 3.65396C9.13413 3.68141 9.18077 3.70886 9.41396 3.73343C9.43728 3.73487 9.4606 3.73776 9.48392 3.73921C9.13413 3.75654 8.83097 3.77677 8.3879 3.78399C8.20135 3.83745 8.90093 3.89091 8.29462 3.94581C8.15471 3.96026 8.3879 4.00505 8.97089 4.01372C9.36732 4.0325 9.81039 4.04262 10.3001 4.04695C10.5566 4.04984 10.9297 4.05706 10.8131 4.06862C10.2768 4.12064 11.0463 4.1582 11.2096 4.20299C11.2096 4.21166 11.2096 4.22177 11.2096 4.23044C10.51 4.29112 8.92425 4.25789 8.2713 4.33302C9.13413 4.3807 10.1602 4.3677 11.1629 4.37348C10.7898 4.40815 9.92699 4.37926 9.90367 4.41971C9.90367 4.45439 10.1835 4.48184 9.39064 4.50495C8.90093 4.51796 9.53056 4.53819 9.78707 4.55119C9.97363 4.5613 10.1835 4.56997 10.0669 4.58731C9.76375 4.61332 9.06417 4.58731 8.83097 4.62198C9.01753 4.67833 10.0436 4.6321 10.3934 4.66099C10.0436 4.70723 9.2274 4.68122 8.94757 4.72023C8.94757 4.74768 9.344 4.74479 9.60052 4.74913C9.95031 4.75635 10.1602 4.76791 9.95031 4.78958C9.2274 4.85749 10.0902 4.86616 10.8364 4.87916C10.953 4.90228 11.023 4.92684 11.3495 4.94273C11.3961 4.97307 11.676 5.00775 11.2329 5.02942C10.5333 5.06554 10.8131 5.10455 11.023 5.14356C11.1396 5.16523 11.3728 5.18257 11.2096 5.20858C10.8831 5.26203 11.3961 5.28515 12.1423 5.2996C12.5155 5.30682 13.0518 5.29671 13.215 5.33572C13.0518 5.3415 12.9352 5.34728 12.772 5.35161C12.0491 5.36751 10.7199 5.31983 10.7898 5.42385C10.7898 5.42819 10.3701 5.43397 10.1602 5.43975C9.81039 5.44986 9.29736 5.42963 8.97089 5.46142C9.69379 5.48887 10.3701 5.51199 11.1862 5.51054C11.4661 5.51054 11.6526 5.52066 11.7459 5.53655C11.8625 5.56111 11.536 5.56978 11.2562 5.577C11.023 5.58278 10.7432 5.5929 10.5566 5.58856C9.4606 5.56689 8.41122 5.61601 7.29188 5.59434C6.87213 5.58712 6.21919 5.58567 5.98599 5.62035C5.7528 5.65791 6.26583 5.67525 6.68558 5.69114C8.59778 5.76338 10.3234 5.85874 12.5854 5.89197C14.0079 5.91364 15.477 5.95988 16.9228 5.92231C17.9722 5.89631 18.9283 5.89486 19.9777 5.89775C22.6361 5.90497 25.2479 5.94687 27.9296 5.92376C29.0257 5.94687 30.145 5.93532 31.2643 5.9252C32.2904 5.94687 33.3398 5.9382 34.3891 5.94543C34.7623 5.94832 35.182 5.94832 35.4385 5.92954C36.8144 5.82695 38.3768 5.90208 39.776 5.89342C39.8459 5.93387 39.0064 5.9122 39.2629 5.9541C40.1024 5.9541 40.9419 5.95699 41.8047 5.95843C46.1189 5.96421 50.433 5.9671 54.7238 5.97866C57.5687 5.98588 60.4137 5.97577 63.2354 5.97866C68.4823 5.98444 243.775 5.98733 249.022 5.99166C250.678 5.99166 252.357 5.98877 254.012 5.99311C255.551 5.99744 257.09 6.00322 258.629 5.99022C259.212 5.99022 259.772 5.98733 260.355 5.98588C261.265 6.00467 262.197 5.996 263.107 5.98733C263.247 5.98155 263.387 5.96999 263.503 5.97288C263.363 5.97721 263.223 5.98299 263.107 5.98733C263.317 5.98733 263.503 5.98733 263.713 5.98733C264.646 6.00033 265.555 5.99311 266.488 5.98733C267.817 6.00756 269.147 5.99889 270.476 5.98877C271.269 6.00611 272.038 6.00033 272.831 5.99166C273.671 5.99166 274.487 5.99311 275.303 5.98155C279.57 5.99311 283.815 5.97577 288.059 5.94254C288.805 5.94687 289.551 5.94254 290.297 5.92954C290.67 5.92665 291.02 5.9252 291.393 5.92231C295.474 5.90642 299.439 5.85152 303.45 5.80817C305.082 5.79083 306.691 5.76916 308.37 5.76483C310.725 5.7576 313.057 5.77928 315.389 5.76916C317.278 5.82118 319.097 5.80817 320.916 5.75327C321.359 5.74027 321.849 5.7316 322.292 5.71859C324.344 5.65791 326.559 5.61023 328.401 5.53077C329.871 5.4672 331.34 5.42241 333.042 5.40074C334.021 5.38773 334.931 5.36173 335.724 5.32561C336.33 5.29815 336.983 5.26492 336.657 5.2028C336.19 5.11177 336.213 5.11177 337.566 5.07132C338.475 5.04387 339.385 5.01208 339.455 4.94273C339.525 4.88205 339.805 4.82137 339.758 4.76358C339.711 4.70289 340.341 4.62198 339.012 4.57864C338.709 4.56853 338.219 4.56564 338.359 4.53385C338.499 4.50062 338.965 4.50062 339.408 4.49918C339.781 4.48184 340.154 4.46594 340.528 4.44861C341.181 4.44716 341.833 4.44427 342.673 4.44138C341.81 4.3677 340.761 4.31568 340.224 4.24055H340.201C340.924 4.19577 340.947 4.12208 342.02 4.08018C341.087 4.04839 340.341 4.02817 339.455 4.03828C338.685 4.04984 337.962 4.05562 337.939 3.98482C339.222 3.9487 340.598 3.93137 341.997 3.92414C342.486 3.92125 342.999 3.92414 343.396 3.90247C343.746 3.88513 344.002 3.86201 343.839 3.83312C343.676 3.80278 343.233 3.80133 342.766 3.80133C342.043 3.80133 341.717 3.83312 341.32 3.86201C341.064 3.8808 340.714 3.88513 340.318 3.87646C340.038 3.87068 339.898 3.85624 340.015 3.84179C340.644 3.76377 339.502 3.78833 339.012 3.77388C339.058 3.74498 339.105 3.71753 339.152 3.68864C340.116 3.65204 340.17 3.61303 339.315 3.57161C339.991 3.54705 340.807 3.53404 341.181 3.48347C340.807 3.46325 340.481 3.48058 340.248 3.47481C339.711 3.4618 339.945 3.44302 340.248 3.42713C341.367 3.4199 342.44 3.4069 343.652 3.35778C342.393 3.33321 341.39 3.36356 340.481 3.33466C341.274 3.32599 342.09 3.31732 342.883 3.30865C342.44 3.30432 342.067 3.27831 341.624 3.29565C341.204 3.31154 340.761 3.31443 340.574 3.27976C340.411 3.25086 340.411 3.21907 340.877 3.19596C341.53 3.16562 342.3 3.15117 343.093 3.1425C343.932 3.13239 344.818 3.13816 345.588 3.10927C345.471 3.0717 345.145 3.05292 344.585 3.05003C344.026 3.04714 343.466 3.0457 342.929 3.04281C343.069 3.03558 343.209 3.02836 343.373 3.02114C343.606 3.01102 343.979 3.00091 343.652 2.97779C343.466 2.96479 343.186 2.97057 342.999 2.98213C342.626 3.00235 342.3 3.02836 341.717 3.00235C342.02 2.94456 342.65 2.92289 343.629 2.91711C344.772 2.91133 345.914 2.89688 347.057 2.88243C348.223 2.86799 348.27 2.84631 347.407 2.77985C346.894 2.76252 346.264 2.75963 345.961 2.71917L346.054 2.71195Z" fill="#D73C33"/>
</svg>
