<svg width="149" height="37" viewBox="0 0 149 37" fill="none" xmlns="http://www.w3.org/2000/svg">
<path d="M140.776 13.3301C143.817 19.9047 147.359 26.5016 148.624 33.6989C148.998 35.8214 146.603 36.8971 145.077 35.5796C140.317 31.4612 134.73 28.5009 128.683 26.7661C126.108 26.0237 127.334 22.0588 129.906 22.7963C131.546 23.2652 133.147 23.824 134.706 24.4605C122.895 15.2121 109.015 8.58679 94.2072 5.86214C74.2023 2.17803 54.0671 6.9128 35.5622 14.5921C24.6555 19.1182 14.1663 24.5737 3.72007 30.0628C1.3519 31.306 -0.597047 27.6422 1.77602 26.3964C20.9021 16.3425 40.6006 6.09132 62.0429 2.09576C81.6878 -1.56596 101.475 1.17636 119.399 9.94211C127.355 13.8355 134.742 18.8187 141.42 24.6158C140.077 21.4564 138.53 18.3738 137.102 15.2783C135.984 12.8626 139.65 10.8998 140.776 13.3301V13.3301Z" fill="#D73C33"/>
</svg>
