<svg width="580" height="306" viewBox="0 0 580 306" fill="none" xmlns="http://www.w3.org/2000/svg">
<path d="M-31.2952 200.839C-24.6265 254.487 -28.5166 284.708 -31.2952 293.112C55.0271 300.265 239.231 312.104 285.467 302.232C331.703 292.361 501.087 298.12 580 302.232C578.333 292.934 574.554 271.868 572.776 261.997C570.553 249.658 565.551 175.625 565.551 139.682C565.551 103.738 579.484 24.1339 559 20C530 14.1475 385.497 0.199219 329.369 0.199219C273.241 0.199219 153.761 13.0745 92.0753 14.1475C42.7271 15.0058 -1.10089 5.20628 -16.8464 0.199219C-21.6626 8.24629 -31.2952 29.3832 -31.2952 49.5546C-31.2952 74.7687 -39.631 133.781 -31.2952 200.839Z" fill="#E01F26"/>
</svg>
