<svg width="91" height="69" viewBox="0 0 91 69" fill="none" xmlns="http://www.w3.org/2000/svg">
<path d="M83.3204 29.1805C85.1775 29.582 87.0346 30.686 87.0346 33.5465C87.0346 39.2675 81.2122 42.9812 59.0269 49.0033C47.9343 52.0143 34.081 56.4306 23.1389 59.8933C17.6678 61.5995 12.8995 63.1051 9.63695 64.0586C8.88406 64.2593 5.82228 65.2128 4.91881 65.2128C4.71804 65.2128 4.46707 65.1124 4.61765 64.8615C5.77209 63.2556 11.4941 61.5494 23.44 58.0866C35.5868 54.5737 51.6485 50.559 67.7103 45.7915C83.8223 41.024 87.4864 37.0594 86.2316 32.0912C85.579 29.4816 82.0655 29.582 80.108 29.9835C80.108 30.8868 79.5559 32.0912 78.6022 33.0949C77.1466 34.6506 75.3397 35.2528 74.5366 34.5C74.135 34.1487 74.0346 33.4964 74.2354 32.7938C73.7335 33.2454 73.081 33.6971 72.579 34.1488C71.4246 35.1524 69.1157 36.7583 68.1119 36.9591C67.1582 37.1598 65.6022 37.6616 66.2547 35.6543C66.5559 34.6004 66.9574 33.5465 67.359 32.7938L67.3088 32.593C65.4516 33.9982 62.6408 35.8048 62.0385 36.0056C61.4864 36.2063 60.4825 36.2565 60.5829 35.303C59.4285 36.1059 58.2238 36.3067 57.6215 35.7546C57.4709 35.6041 57.3705 35.4535 57.3204 35.2528C57.2702 35.303 57.22 35.303 57.1698 35.3532C56.3667 35.855 50.6949 40.472 50.6949 40.472C50.6949 40.472 46.3281 49.6055 43.1659 48.5014C40.0037 47.3974 44.9227 43.7339 46.3281 42.6801C47.7335 41.6764 49.3397 40.3716 49.3397 40.3716L53.3551 32.5429C54.3088 30.6359 55.7142 28.4277 57.1698 26.2698C60.8841 20.6994 64.2972 17.3872 65.552 18.7422C67.3088 20.6492 65.7528 22.1547 64.0462 24.0115C62.3397 25.8182 60.7837 26.6211 60.7837 26.6211C60.7837 26.6211 67.9111 20.2477 64.8493 19.7961C63.2431 19.5451 59.1775 24.4632 56.3165 28.8794C54.0076 33.1451 51.247 39.1672 51.247 39.1672L55.9651 35.2528C55.9651 35.2528 56.6678 34.2491 57.2702 34.1989C57.4709 33.396 57.9729 32.4927 58.7258 31.6395C60.1312 30.0838 61.9883 29.4816 62.7914 30.2344C62.9922 30.4351 63.1427 30.7362 63.1929 31.0373C63.3937 30.8366 63.5443 30.7864 63.6447 30.8366C64.0462 31.0875 63.4941 31.8905 62.7914 32.9945C62.0887 34.0484 61.637 34.9517 62.1389 35.1023C62.6408 35.2026 65.8532 32.9945 67.8107 31.3886C68.1119 30.7362 73.2817 19.7459 76.2431 20.0972C79.3049 20.4986 73.9844 26.0691 72.4787 27.675C70.9729 29.2307 69.2161 31.1879 69.2161 31.1879L68.6138 32.4927C68.5134 32.844 68.3126 33.3458 68.0617 33.8978C67.5597 35.0521 67.4593 36.0056 68.2122 36.1059C69.1157 36.2565 71.5752 34.2491 72.9304 33.1952C73.7837 32.4927 74.3358 31.8905 74.7373 31.6897C74.9883 31.2381 75.2895 30.7864 75.691 30.3849C77.0964 28.8292 78.9536 28.227 79.7566 28.9798C79.8068 29.03 79.857 29.0801 79.857 29.1303C80.9613 28.9296 82.3165 28.9798 83.3204 29.1805ZM75.44 33.396C75.942 33.8476 77.0964 33.4462 78.0501 32.4425C78.9536 31.4388 79.3049 30.2846 78.803 29.7827C78.301 29.3311 77.1466 29.7325 76.1929 30.7362C75.2895 31.7399 74.9381 32.8941 75.44 33.396ZM69.9188 29.6824C69.9188 29.6824 72.0771 27.4241 73.8339 25.3665C75.5906 23.309 77.247 21.3016 75.5404 21.4521C73.8339 21.6027 69.9188 29.6824 69.9188 29.6824ZM48.7373 41.576C48.7373 41.576 46.7798 43.0815 45.1234 44.4365C43.5173 45.8417 42.0115 47.1967 43.7682 47.4978C45.4748 47.7989 48.7373 41.576 48.7373 41.576ZM58.525 34.6506C59.0269 35.1023 60.1814 34.7008 61.135 33.6971C62.0385 32.6934 62.3899 31.5392 61.8879 31.0373C61.386 30.5857 60.2316 30.9871 59.2779 31.9908C58.3242 32.9945 58.0231 34.1989 58.525 34.6506ZM44.9227 37.3605C45.4246 37.8122 46.579 37.4107 47.5327 36.407C48.4362 35.4034 48.7875 34.2491 48.2856 33.7473C47.7837 33.2956 46.6292 33.6971 45.6756 34.7008C44.7219 35.6543 44.4207 36.8587 44.9227 37.3605ZM17.4169 45.39C17.4169 45.39 14.2547 47.297 11.6447 49.1037C8.98445 50.9103 6.52498 52.7169 8.53271 53.018C10.4902 53.3693 17.4169 45.39 17.4169 45.39ZM31.8223 36.1561C31.8223 36.3569 31.6717 36.6078 31.4207 36.8587C31.1698 37.4609 31.1698 38.0129 31.4709 38.314C31.9729 38.7657 33.1273 38.3642 34.081 37.3605C34.9844 36.3569 35.3358 35.2026 34.8339 34.7008C34.3319 34.2491 33.1775 34.6506 32.2238 35.6543C32.0732 35.855 31.9227 36.0056 31.8223 36.1561ZM40.9072 35.0521C40.7065 34.9517 40.5057 34.8011 40.2045 34.7008C40.1543 34.7008 40.1041 34.6506 40.0037 34.6506C39.6022 35.2026 38.8493 36.0056 38.3474 36.7081C37.4941 37.8122 35.7373 39.5185 35.0346 39.7192C34.4323 39.8698 33.4787 39.9199 33.579 39.0166C32.4246 39.8196 31.22 40.0203 30.6176 39.4683C30.2161 39.0668 30.1157 38.4144 30.3667 37.6115C28.2084 38.9163 20.3281 43.9849 20.3281 43.9849C20.3281 43.9849 10.6408 55.6276 7.27788 54.2726C3.91495 52.8675 11.6949 48.1502 13.8532 46.8454C16.0617 45.5406 18.6215 43.8845 18.6215 43.8845L20.9304 41.024C18.4207 42.5797 15.9111 43.7339 14.2045 43.7841C9.43618 43.9347 14.6563 37.1598 20.1775 31.0373C25.6987 24.9148 30.0655 22.0543 31.0694 23.6101C32.0732 25.1156 30.969 27.7252 28.3088 29.582C25.6485 31.4388 23.3898 32.041 23.3898 32.041C23.3898 32.041 33.1775 25.4669 30.2161 24.5134C27.2547 23.6101 8.98444 43.6838 14.7065 42.1782C20.4285 40.6727 25.247 36.658 25.5983 36.0056C25.9497 35.3532 25.9497 33.5465 28.359 33.8978C29.3628 34.0484 27.9072 35.7546 25.498 37.7118L22.135 41.9273L29.2624 37.2602C29.2624 37.2602 30.4169 36.1059 31.2702 35.9052C31.4207 35.7045 31.5713 35.5037 31.7721 35.3532C33.1775 33.7975 35.0346 33.1952 35.8377 33.948C36.0385 34.1487 36.1891 34.4499 36.2393 34.751C36.44 34.5502 36.5906 34.5 36.691 34.5502C37.0926 34.8011 36.5404 35.6041 35.8377 36.7081C35.135 37.762 34.6833 38.6653 35.1852 38.8159C35.8377 38.9664 37.6949 36.8587 38.6987 35.6543C39.1505 35.1524 39.4516 34.7008 39.7026 34.3997C39.3512 34.1488 39.2007 33.7975 39.4516 33.396C39.8532 32.844 42.0115 34.3495 41.9613 34.751C42.0617 35.1022 41.5597 35.7546 40.9072 36.6078C40.1543 37.6115 39.6524 38.4646 40.2045 38.565C40.9072 38.7155 42.8648 36.7081 43.9188 35.6041C44.8725 34.6506 45.274 33.948 45.5752 33.948C46.9304 32.6934 48.5366 32.1916 49.2895 32.8941C49.3397 32.9443 49.3899 32.9945 49.44 33.0447C49.5404 33.0447 49.6408 32.9945 49.7914 32.9945C50.0926 32.9443 50.3435 33.2454 49.9922 33.4964C49.8918 33.5967 49.7914 33.6469 49.7412 33.6971C49.8416 34.6004 49.2895 35.9052 48.2354 37.0594C46.7798 38.6152 44.9729 39.2174 44.1698 38.4646C43.6678 38.0129 43.6678 37.1598 44.0192 36.2063C43.9188 36.3067 43.8184 36.4572 43.718 36.5576C42.8146 37.6115 40.9574 39.1672 40.2045 39.4181C39.4516 39.6188 37.9458 39.6188 39.0501 37.8122C39.552 36.7583 40.3049 35.6543 40.9072 35.0521Z" fill="white"/>
<path fill-rule="evenodd" clip-rule="evenodd" d="M51.5482 11.9673C51.5482 12.1179 51.4478 12.2182 51.2972 12.2182C51.1969 12.2182 51.1467 12.1681 51.0965 12.1179C50.6949 12.2684 50.2432 12.3688 49.7413 12.4692C50.2432 12.5695 50.6949 12.7201 51.0965 12.8205C51.1467 12.7703 51.1969 12.7201 51.2972 12.7201C51.4478 12.7201 51.5482 12.8205 51.5482 12.971C51.749 13.0714 51.9497 13.1717 52.1505 13.2721C52.2007 13.2219 52.2509 13.2219 52.3011 13.2219C52.4015 13.2219 52.5019 13.3223 52.5019 13.4728C52.5019 13.523 52.5019 13.523 52.5019 13.5732C52.803 13.8241 53.0038 14.0751 53.0038 14.3762C53.0038 14.7776 52.7026 15.1289 52.1505 15.43C52.1505 15.3297 52.0501 15.2293 51.9497 15.2293C51.8494 15.2293 51.6988 15.3297 51.6988 15.4802C51.6988 15.5304 51.6988 15.5806 51.749 15.6308C51.5482 15.7311 51.3474 15.7813 51.1467 15.8817C51.1467 15.7311 51.0463 15.6308 50.9459 15.6308C50.7953 15.6308 50.6949 15.7311 50.6949 15.8817C50.6949 15.9319 50.6949 15.9821 50.7451 16.0322C50.444 16.1326 50.1428 16.1828 49.8416 16.2832C49.8416 16.2832 49.8416 16.233 49.8416 16.1828C49.8416 16.0322 49.7413 15.9319 49.5907 15.9319C49.4903 15.9319 49.3397 16.0322 49.3397 16.1828C49.3397 16.233 49.3397 16.2832 49.3899 16.3333C49.1389 16.3835 48.8378 16.4337 48.5366 16.4839C48.5366 16.3835 48.4362 16.233 48.2857 16.233C48.1351 16.233 48.0347 16.3333 48.0347 16.4839C47.7837 16.5341 47.583 16.5843 47.332 16.5843C47.332 16.3835 47.2316 16.2832 47.1312 16.2832C47.0308 16.2832 46.8803 16.3835 46.8803 16.5341V16.5843C46.5289 16.5843 46.1775 16.6345 45.8262 16.6345C45.8262 16.4337 45.7258 16.3333 45.6254 16.3333C45.4748 16.3333 45.3745 16.4337 45.3745 16.5843C45.0231 16.6345 44.722 16.6345 44.3706 16.5843V16.5341C44.3706 16.3835 44.2702 16.2832 44.1196 16.2832C43.9691 16.2832 43.8687 16.3835 43.8687 16.5341C43.6177 16.5341 43.3667 16.5341 43.166 16.5341C43.166 16.3835 43.0656 16.2832 42.915 16.2832C42.8146 16.2832 42.7142 16.3835 42.664 16.4839C42.3629 16.4337 42.0617 16.3835 41.8108 16.3333C41.8609 16.2832 41.8609 16.233 41.8609 16.1828C41.8609 16.0322 41.7606 15.9319 41.61 15.9319C41.4594 15.9319 41.359 16.0322 41.359 16.1828C41.0579 16.1828 40.7567 16.0824 40.5057 16.0322C40.5559 15.9821 40.5559 15.9319 40.5559 15.8817C40.5559 15.7311 40.4555 15.6308 40.305 15.6308C40.1544 15.6308 40.054 15.7311 40.054 15.8817C39.8532 15.8315 39.6525 15.7311 39.4517 15.6308C39.4517 15.5806 39.5019 15.5304 39.5019 15.5304C39.5019 15.3798 39.4015 15.2795 39.2509 15.2795C39.1505 15.2795 39.1003 15.3297 39.0501 15.43C38.5482 15.1289 38.2972 14.7776 38.2972 14.4263C38.2972 14.1252 38.498 13.8743 38.7992 13.6234V13.5732C38.7992 13.4227 38.8996 13.3223 39.0501 13.3223C39.1003 13.3223 39.1505 13.3223 39.2007 13.3725C39.3513 13.2721 39.5521 13.1717 39.803 13.0714C39.803 12.9208 39.9034 12.8205 40.054 12.8205C40.1544 12.8205 40.2046 12.8706 40.2548 12.9208C40.6563 12.7703 41.1081 12.6699 41.61 12.5695C41.1081 12.4692 40.6563 12.3688 40.2548 12.2182C40.2046 12.2684 40.1544 12.3186 40.054 12.3186C39.9034 12.3186 39.803 12.2182 39.803 12.0677C39.6023 11.9673 39.4015 11.8669 39.2007 11.7666C39.1505 11.8168 39.1003 11.8168 39.0501 11.8168C38.8996 11.8168 38.7992 11.7164 38.7992 11.5658C38.7992 11.5157 38.7992 11.5157 38.7992 11.5157C38.4478 11.2647 38.2972 10.9636 38.2972 10.7127C38.2972 10.3112 38.5984 9.95995 39.1505 9.65884C39.1505 9.75921 39.2509 9.85958 39.3513 9.85958C39.5019 9.85958 39.6023 9.75921 39.6023 9.60866C39.6023 9.55847 39.6023 9.50829 39.5521 9.4581C39.7528 9.35774 39.9536 9.30755 40.1544 9.20718C40.1544 9.35774 40.2548 9.4581 40.3552 9.4581C40.5057 9.4581 40.6061 9.35774 40.6061 9.20718C40.6061 9.157 40.6061 9.10682 40.5559 9.05663C40.8571 8.95626 41.1582 8.90608 41.4594 8.80571C41.4594 8.80571 41.4594 8.85589 41.4594 8.90608C41.4594 9.05663 41.5598 9.157 41.7104 9.157C41.8609 9.157 41.9613 9.05663 41.9613 8.90608C41.9613 8.85589 41.9613 8.80571 41.9111 8.75553C42.1621 8.70534 42.4633 8.65516 42.7644 8.60497C42.7644 8.70534 42.8648 8.80571 43.0154 8.80571C43.166 8.80571 43.2663 8.70534 43.2663 8.55479C43.5173 8.5046 43.7181 8.5046 43.9691 8.45442C43.9691 8.60497 44.0694 8.75553 44.1698 8.75553C44.2702 8.75553 44.4208 8.65516 44.4208 8.5046C44.4208 8.45442 44.4208 8.45442 44.4208 8.45442C44.7721 8.45442 45.1235 8.40424 45.4748 8.40424C45.4748 8.60497 45.5752 8.70534 45.6756 8.70534C45.776 8.70534 45.9266 8.60497 45.9266 8.45442C46.2779 8.40424 46.5791 8.40424 46.9304 8.45442V8.5046C46.9304 8.65516 47.0308 8.75553 47.1814 8.75553C47.332 8.75553 47.4324 8.65516 47.4324 8.5046C47.6833 8.45442 47.9343 8.5046 48.1351 8.5046C48.1351 8.65516 48.2355 8.75553 48.386 8.75553C48.4864 8.75553 48.5868 8.65516 48.637 8.55479C48.9382 8.60497 49.2393 8.65516 49.4903 8.70534C49.4401 8.75552 49.4401 8.80571 49.4401 8.85589C49.4401 9.00645 49.5405 9.10682 49.6911 9.10682C49.8416 9.10682 49.942 9.00645 49.942 8.85589C50.2432 8.85589 50.5443 8.95626 50.8455 9.00645C50.7953 9.05663 50.7953 9.10682 50.7953 9.157C50.7953 9.30755 50.8957 9.40792 51.0463 9.40792C51.1969 9.40792 51.2972 9.30755 51.2972 9.157C51.498 9.20718 51.6988 9.30755 51.8494 9.40792C51.8494 9.45811 51.7992 9.4581 51.7992 9.50829C51.7992 9.65884 51.8996 9.75921 52.0501 9.75921C52.1505 9.75921 52.2007 9.70903 52.2509 9.60866C52.7528 9.90976 53.0038 10.2611 53.0038 10.6123C53.0038 10.9134 52.8532 11.1644 52.5019 11.4153C52.5019 11.4655 52.5019 11.4655 52.5019 11.5157C52.5019 11.6662 52.4015 11.7666 52.3011 11.7666C52.2509 11.7666 52.1505 11.7164 52.1505 11.6662C51.9497 11.7666 51.7992 11.8669 51.5482 11.9673Z" fill="#E01F26"/>
<path fill-rule="evenodd" clip-rule="evenodd" d="M45.776 6.29648C45.5753 6.29648 45.6757 5.69427 45.776 5.69427C45.8764 5.69427 46.027 6.29648 45.776 6.29648ZM45.8262 5.24261C45.7258 5.24261 45.6255 5.14224 45.6255 5.04188C45.6255 4.94151 45.7258 4.84114 45.8262 4.84114C45.9266 4.84114 46.027 4.94151 46.027 5.04188C45.9768 5.14224 45.9266 5.24261 45.8262 5.24261ZM46.027 5.64409C45.9768 5.44335 46.0772 5.34298 46.1776 5.24261C46.6293 4.94151 47.1814 5.34298 47.0811 5.69427C46.9305 6.04556 46.8301 6.49722 46.8301 7.1998H47.0309C47.0309 6.59759 47.2818 5.09206 48.2355 4.99169C48.637 4.94151 48.888 5.19243 48.888 5.64409C48.888 6.04556 48.637 6.2463 48.3359 6.29648C48.0849 6.19611 47.9343 6.04556 47.9845 5.79464C48.0347 5.5939 48.0849 5.49353 48.2355 5.54372C48.2355 5.5939 48.1853 5.64409 48.1853 5.69427C48.1853 5.84482 48.2355 5.94519 48.3359 5.94519C48.4363 5.94519 48.4865 5.84482 48.4865 5.69427C48.4865 5.64409 48.4865 5.5939 48.4363 5.54372C48.4363 5.54372 48.4363 5.44335 48.2857 5.39317C48.0347 5.2928 47.7838 5.54372 47.7838 5.84482V5.94519C47.7838 6.09575 47.6834 6.34667 47.6834 6.29648C47.4324 6.49722 47.4826 6.89869 47.4826 7.24998H47.6332C47.6332 7.24998 47.6332 6.64777 47.9343 6.44704C48.0347 6.44704 48.1351 6.44704 48.2355 6.44704C48.6872 6.39685 48.9884 6.14593 48.9884 5.64409C48.9884 4.99169 48.3359 4.89132 47.834 4.99169C47.7838 4.99169 47.5328 5.04188 47.2818 5.2928C47.1814 5.19243 46.8301 4.99169 46.278 5.04188C46.2278 4.89132 45.9266 4.79095 45.776 4.79095C45.6255 4.79095 45.4247 4.89132 45.3243 4.99169C44.6718 4.89132 44.2702 5.24261 44.2201 5.34298C43.9691 5.04188 43.7181 4.99169 43.6679 4.99169C43.166 4.89132 42.5135 4.99169 42.5135 5.64409C42.5135 6.14593 42.8648 6.39685 43.2162 6.44704C43.3668 6.44704 43.4672 6.44704 43.5675 6.44704C43.8687 6.64777 43.8687 7.24998 43.8687 7.24998H43.9691C43.9691 6.89869 44.0193 6.49722 43.7683 6.29648C43.7181 6.29648 43.6177 6.09575 43.6679 5.94519V5.84482C43.6679 5.54372 43.4672 5.2928 43.166 5.39317C43.0656 5.44335 43.0154 5.54372 43.0154 5.54372C43.0154 5.5939 42.9652 5.64409 42.9652 5.69427C42.9652 5.84482 43.0154 5.94519 43.1158 5.94519C43.2162 5.94519 43.2664 5.84482 43.2664 5.69427C43.2664 5.64409 43.2664 5.5939 43.2162 5.54372C43.3668 5.49353 43.4672 5.5939 43.4672 5.79464C43.5174 6.04556 43.3668 6.19611 43.166 6.29648C42.8648 6.2463 42.6139 6.04556 42.6139 5.64409C42.6139 5.24261 42.8648 4.94151 43.2664 4.99169C44.1699 5.14224 44.471 6.59759 44.471 7.1998H44.6718C44.6718 6.49722 44.5714 5.99538 44.4208 5.64409C44.3204 5.34298 44.8726 4.84114 45.3745 5.19243C45.4749 5.2928 45.6255 5.44335 45.4749 5.79464C45.3745 5.99538 45.3745 6.64777 45.7258 6.64777C46.3282 6.69796 46.0772 5.89501 46.027 5.64409Z" fill="white"/>
<path fill-rule="evenodd" clip-rule="evenodd" d="M45.7761 18.7422C45.9769 18.7422 45.8765 19.3444 45.7761 19.3444C45.6757 19.3946 45.5251 18.7422 45.7761 18.7422ZM45.7761 19.7961C45.8765 19.7961 45.9769 19.8964 45.9769 19.9968C45.9769 20.0972 45.8765 20.1975 45.7761 20.1975C45.6757 20.1975 45.5753 20.0972 45.5753 19.9968C45.5753 19.8964 45.6255 19.7961 45.7761 19.7961ZM45.5753 19.3946C45.6255 19.5953 45.5251 19.6957 45.4247 19.7961C44.973 20.0972 44.4209 19.6957 44.5213 19.3444C44.6718 18.9931 44.7722 18.5415 44.7722 17.8389H44.5715C44.5715 18.4411 44.3205 19.9466 43.3668 20.047C42.9653 20.0972 42.7143 19.8462 42.7143 19.3946C42.7143 18.9931 42.9653 18.7924 43.2664 18.7422C43.5174 18.8426 43.668 18.9931 43.6178 19.244C43.5676 19.4448 43.5174 19.5451 43.3668 19.495C43.3668 19.4448 43.417 19.3946 43.417 19.3444C43.417 19.1939 43.3166 19.0935 43.2664 19.0935C43.1661 19.0935 43.1159 19.1939 43.1159 19.3444C43.1159 19.3946 43.1159 19.4448 43.1661 19.495C43.1661 19.495 43.1661 19.5953 43.3166 19.6455C43.5676 19.7459 43.8186 19.495 43.8186 19.1939V19.0935C43.8186 18.9429 43.9189 18.692 43.9189 18.7422C44.1699 18.5415 44.1197 18.14 44.1197 17.7887H44.0193C44.0193 17.7887 44.0193 18.3909 43.7182 18.5916C43.6178 18.5916 43.5174 18.5916 43.417 18.5916C42.9653 18.6418 42.6641 18.8927 42.6641 19.3946C42.6641 20.047 43.3166 20.1474 43.8186 20.047C43.8688 20.047 44.1197 19.9968 44.3707 19.7459C44.4711 19.8462 44.8224 20.047 45.3745 19.9968C45.4247 20.1474 45.7259 20.2477 45.8765 20.2477C46.0271 20.2477 46.2278 20.1474 46.3282 20.047C46.9807 20.1474 47.3823 19.7961 47.4325 19.6957C47.6834 19.9968 47.9344 20.047 47.9846 20.047C48.4865 20.1474 49.139 19.9968 49.139 19.3946C49.139 18.8927 48.7877 18.6418 48.4363 18.5916C48.2857 18.5916 48.1854 18.5916 48.085 18.5916C47.6834 18.4411 47.6834 17.8891 47.6834 17.8389H47.5328C47.5328 18.14 47.4827 18.5916 47.7336 18.7924C47.7838 18.7924 47.834 18.9931 47.834 19.1437V19.244C47.834 19.5451 48.0348 19.7961 48.3359 19.6957C48.4363 19.6455 48.4865 19.5451 48.4865 19.5451C48.5367 19.495 48.5367 19.4448 48.5367 19.3946C48.5367 19.244 48.4865 19.1437 48.3861 19.1437C48.2857 19.1437 48.2356 19.244 48.2356 19.3946C48.2356 19.4448 48.2356 19.495 48.2857 19.5451C48.1352 19.5953 48.0348 19.495 48.0348 19.2942C47.9846 19.0433 48.1352 18.8927 48.3359 18.7924C48.6371 18.8426 48.8881 19.0433 48.8881 19.4448C48.8881 19.8463 48.6371 20.1474 48.2356 20.0972C47.3321 19.9466 47.0309 18.4913 47.0309 17.8891H46.8301C46.8301 18.5916 46.9305 19.0935 47.0811 19.4448C47.1815 19.7459 46.6294 20.2477 46.1274 19.8964C46.0271 19.7961 45.8765 19.6455 46.0271 19.2942C46.1274 19.0935 46.1274 18.4411 45.7761 18.4411C45.224 18.3407 45.4749 19.1437 45.5753 19.3946Z" fill="white"/>
<path d="M38.7992 9.50827C39.3011 8.30385 42.2123 7.09943 45.776 7.09943C49.3397 7.09943 52.3011 8.30385 52.7529 9.50827C52.1505 8.55477 49.3397 7.75182 45.776 7.75182C42.1621 7.75182 39.3513 8.55477 38.7992 9.50827Z" fill="white"/>
<path d="M52.8032 15.43C52.3012 16.6344 49.39 17.8388 45.8263 17.8388C42.2626 17.8388 39.3012 16.6344 38.8495 15.43C39.4518 16.3835 42.2626 17.1864 45.8263 17.1864C49.39 17.1864 52.2008 16.3835 52.8032 15.43Z" fill="white"/>
<path fill-rule="evenodd" clip-rule="evenodd" d="M48.2857 14.5769C47.583 14.7275 46.9305 14.8278 46.278 14.8278C45.1235 14.8278 44.2703 14.5769 43.7181 14.0249C43.2162 13.5732 43.0154 13.0212 43.0154 12.3688C43.0154 11.616 43.3166 11.064 43.8687 10.6124C44.471 10.1607 45.2239 9.95996 46.1274 9.95996C46.8803 9.95996 47.5328 10.0101 48.1351 10.1607L48.2857 11.064H47.9344C47.9344 10.8633 47.834 10.7127 47.6332 10.512C47.2819 10.2611 46.8301 10.2109 46.2278 10.2109C45.5251 10.2109 44.973 10.3614 44.5714 10.7629C44.1699 11.1644 43.9189 11.7164 43.9189 12.419C43.9189 13.0714 44.1699 13.6234 44.6216 13.9747C45.0734 14.326 45.7761 14.4765 46.6293 14.4765C46.8301 14.4765 47.1313 14.4765 47.4826 14.4264V13.4227C47.4826 13.1718 47.4324 13.0212 47.332 12.9208C47.2317 12.8706 47.0309 12.8205 46.7799 12.8205H46.6795V12.5695H49.0386V12.8205C48.6873 12.8205 48.4865 12.8706 48.3861 12.9208C48.2857 13.0212 48.2355 13.1718 48.2355 13.4227V14.5769H48.2857Z" fill="#010101"/>
</svg>
